<?xml version="1.0" encoding="utf-8"?>
<!-- Generator: Adobe Illustrator 28.1.0, SVG Export Plug-In . SVG Version: 6.00 Build 0)  -->
<svg version="1.1" id="Camada_1" xmlns="http://www.w3.org/2000/svg" xmlns:xlink="http://www.w3.org/1999/xlink" x="0px" y="0px"
	 viewBox="0 0 1114 1080" style="enable-background:new 0 0 1114 1080;" xml:space="preserve">
<style type="text/css">
	.st0{clip-path:url(#SVGID_00000139295201621091856980000005658816937999282055_);fill:#EAEAEA;}
</style>
<g>
	<g>
		<defs>
			<rect id="SVGID_1_" x="50.39" y="33.39" width="1013.22" height="1013.22"/>
		</defs>
		<clipPath id="SVGID_00000079471545508416732050000004606377942647423365_">
			<use xlink:href="#SVGID_1_"  style="overflow:visible;"/>
		</clipPath>
		<path style="clip-path:url(#SVGID_00000079471545508416732050000004606377942647423365_);fill:#EAEAEA;" d="M474.33,199.14
			c54.21,0,107.12,9.76,157.26,29.02c2.37,0.91,4.8,1.34,7.2,1.34c8.06,0,15.67-4.9,18.74-12.88c3.98-10.35-1.19-21.96-11.53-25.94
			C591.24,169.66,533.49,159,474.33,159c-11.08,0-20.07,8.99-20.07,20.07C454.26,190.16,463.25,199.14,474.33,199.14z"/>
		<path style="clip-path:url(#SVGID_00000079471545508416732050000004606377942647423365_);fill:#EAEAEA;" d="M877.4,205.89
			l15.03-80.69l14.39,36.02c2,5,5.93,8.99,10.9,11.07l44.57,18.63L877.4,205.89z M580.63,493.81
			c-29.75-22.02-66.52-35.06-106.3-35.06c-98.71,0-179.02,80.31-179.02,179.02c0,98.71,80.3,179.02,179.02,179.02
			c98.71,0,179.02-80.31,179.02-179.02c0-44.51-16.33-85.29-43.32-116.64l50.94-54.86c41.55,45.18,66.96,105.42,66.96,171.49
			c0,139.83-113.76,253.6-253.6,253.6c-139.83,0-253.6-113.76-253.6-253.6c0-139.83,113.76-253.6,253.6-253.6
			c59.35,0,113.99,20.49,157.24,54.77L580.63,493.81z M513.45,566.16c-11.62-6.37-24.95-10-39.12-10c-45,0-81.61,36.61-81.61,81.61
			c0,45,36.61,81.61,81.61,81.61s81.62-36.61,81.62-81.61c0-16.32-4.83-31.51-13.12-44.27l39.66-42.7
			c19.19,23.82,30.72,54.07,30.72,86.98c0,76.57-62.3,138.88-138.88,138.88c-76.57,0-138.87-62.31-138.87-138.88
			c0-76.58,62.3-138.88,138.87-138.88c29.23,0,56.36,9.09,78.76,24.57L513.45,566.16z M515.81,637.77
			c0,22.87-18.61,41.47-41.48,41.47c-22.86,0-41.47-18.6-41.47-41.47c0-22.87,18.61-41.47,41.47-41.47c3.44,0,6.75,0.46,9.96,1.25
			l-24.66,26.56c-7.55,8.12-7.07,20.82,1.05,28.36c3.87,3.59,8.77,5.37,13.66,5.37c5.38,0,10.75-2.15,14.71-6.41l24.67-26.57
			C515.06,628.92,515.81,633.26,515.81,637.77z M845.23,637.77c0,204.5-166.38,370.89-370.89,370.89
			c-204.5,0-370.89-166.38-370.89-370.89s166.38-370.89,370.89-370.89c90.13,0,172.84,32.33,237.18,85.98l-52.56,56.62
			c-50.49-40.9-114.73-65.45-184.62-65.45c-161.97,0-293.74,131.77-293.74,293.74c0,161.97,131.77,293.74,293.74,293.74
			s293.75-131.77,293.75-293.74c0-77.68-30.32-148.39-79.72-200.97l52.56-56.61C805.45,446.96,845.23,537.8,845.23,637.77z
			 M1040.91,180.27l-99.94-41.77l-36.96-92.49c-3.32-8.3-11.74-13.39-20.61-12.53c-8.89,0.88-16.13,7.52-17.77,16.3l-31.94,171.51
			l-94.85,102.14c-71.54-60.29-163.84-96.69-264.5-96.69c-226.65,0-411.03,184.39-411.03,411.03s184.38,411.03,411.03,411.03
			c226.64,0,411.03-184.39,411.03-411.03c0-111.57-44.71-212.88-117.12-287.01l94.23-101.47l174.19-30.73
			c8.77-1.55,15.48-8.7,16.45-17.55C1054.11,192.15,1049.14,183.7,1040.91,180.27z"/>
		<path style="clip-path:url(#SVGID_00000079471545508416732050000004606377942647423365_);fill:#EAEAEA;" d="M692.42,253.37
			c3.16,7.81,10.68,12.54,18.61,12.54c2.51,0,5.06-0.47,7.52-1.47c10.28-4.16,15.24-15.86,11.07-26.14l-0.42-1.03
			c-4.16-10.27-15.87-15.23-26.13-11.07c-10.28,4.16-15.24,15.86-11.07,26.14L692.42,253.37z"/>
	</g>
</g>
</svg>
