<?xml version="1.0" encoding="utf-8"?>
<!-- Generator: Adobe Illustrator 28.1.0, SVG Export Plug-In . SVG Version: 6.00 Build 0)  -->
<svg version="1.1" id="Camada_1" xmlns="http://www.w3.org/2000/svg" xmlns:xlink="http://www.w3.org/1999/xlink" x="0px" y="0px"
	 viewBox="0 0 1114 1080" style="enable-background:new 0 0 1114 1080;" xml:space="preserve">
<style type="text/css">
	.st0{clip-path:url(#SVGID_00000179615464987176764680000000080001124816825522_);fill:#F2F2F2;}
</style>
<g>
	<g>
		<defs>
			<rect id="SVGID_1_" x="-100" y="-117" width="1314" height="1314"/>
		</defs>
		<clipPath id="SVGID_00000134234785484984735510000005060084715545165208_">
			<use xlink:href="#SVGID_1_"  style="overflow:visible;"/>
		</clipPath>
		<path style="clip-path:url(#SVGID_00000134234785484984735510000005060084715545165208_);fill:#F2F2F2;" d="M842.86,324.31v-64.58
			h63.01v639.25h-63.01V324.31z M925.56,220.35H823.17c-2.6,0.03-5.1,0.56-7.49,1.57c-2.4,1.01-4.51,2.44-6.35,4.27
			c-1.84,1.84-3.26,3.96-4.27,6.35c-1.01,2.4-1.53,4.89-1.57,7.49v678.63c0.03,2.6,0.56,5.1,1.57,7.49c1.01,2.4,2.44,4.51,4.27,6.35
			c1.84,1.84,3.96,3.26,6.35,4.27c2.4,1.01,4.89,1.53,7.49,1.57h102.39c5.1,0.07,9.48-1.68,13.13-5.25
			c3.72-3.58,5.52-7.96,5.38-13.13V240.04c-0.03-2.5-0.51-4.92-1.44-7.24c-0.93-2.32-2.26-4.39-3.97-6.22
			c-1.71-1.82-3.7-3.27-5.96-4.35C930.43,221.16,928.05,220.53,925.56,220.35z"/>
		<path style="clip-path:url(#SVGID_00000134234785484984735510000005060084715545165208_);fill:#F2F2F2;" d="M636.52,486.81h63.01
			v412.17h-63.01V486.81z M719.21,447.43H616.83c-2.6,0.03-5.1,0.56-7.49,1.57c-2.4,1.01-4.51,2.44-6.35,4.27
			c-1.84,1.84-3.26,3.96-4.27,6.35c-1.01,2.4-1.53,4.89-1.57,7.5v451.54c0.03,2.6,0.56,5.1,1.57,7.49c1.01,2.4,2.44,4.51,4.27,6.35
			c1.84,1.84,3.96,3.26,6.35,4.27c2.4,1.01,4.89,1.53,7.49,1.57h102.39c5.13,0.14,9.51-1.61,13.13-5.25h0.79
			c3.72-3.58,5.52-7.96,5.38-13.13V467.65c0.04-2.61-0.42-5.13-1.38-7.57c-0.96-2.43-2.33-4.59-4.14-6.48
			c-1.8-1.89-3.9-3.37-6.28-4.44C724.32,448.09,721.82,447.52,719.21,447.43z"/>
		<path style="clip-path:url(#SVGID_00000134234785484984735510000005060084715545165208_);fill:#F2F2F2;" d="M430.17,618.07h63.01
			v280.9h-63.01V618.07z M512.87,578.69H410.48c-2.6,0.03-5.1,0.56-7.49,1.57c-2.4,1.01-4.51,2.44-6.35,4.27
			c-1.84,1.84-3.26,3.96-4.27,6.35c-1.01,2.4-1.53,4.89-1.57,7.5v320.28c0.03,2.6,0.56,5.1,1.57,7.49c1.01,2.4,2.44,4.51,4.27,6.35
			c1.84,1.84,3.96,3.26,6.35,4.27c2.4,1.01,4.89,1.53,7.49,1.57h102.39c5.12,0.1,9.49-1.65,13.13-5.25
			c3.72-3.58,5.52-7.96,5.38-13.13V597.73c-0.11-2.45-0.64-4.79-1.61-7.04c-0.97-2.25-2.31-4.25-4.01-6
			c-1.71-1.75-3.67-3.15-5.89-4.18C517.64,579.47,515.31,578.87,512.87,578.69z"/>
		<path style="clip-path:url(#SVGID_00000134234785484984735510000005060084715545165208_);fill:#F2F2F2;" d="M223.83,898.98V786.48
			h63.01v112.49H223.83z M306.92,747.1H204.53c-2.6,0.03-5.1,0.56-7.5,1.57c-2.4,1.01-4.51,2.44-6.35,4.28
			c-1.84,1.84-3.26,3.96-4.27,6.35c-1.01,2.4-1.53,4.89-1.57,7.49v151.87c0.03,2.6,0.56,5.1,1.57,7.49c1.01,2.4,2.44,4.51,4.27,6.35
			c1.84,1.84,3.96,3.26,6.35,4.27c2.4,1.01,4.89,1.53,7.5,1.57h102.39c5.12,0.1,9.49-1.65,13.13-5.25
			c3.67-3.61,5.47-7.98,5.38-13.13V766.79c-0.03-2.5-0.51-4.91-1.44-7.24c-0.93-2.32-2.26-4.39-3.97-6.22
			c-1.71-1.82-3.7-3.27-5.96-4.35C311.79,747.91,309.41,747.29,306.92,747.1z"/>
		<path style="clip-path:url(#SVGID_00000134234785484984735510000005060084715545165208_);fill:#F2F2F2;" d="M706.48,188.06
			l-192.3,192.3l-27.04,27.7l-108.82-28.88c-4.3-1-8.5-0.68-12.6,0.99c-4.09,1.66-7.33,4.35-9.72,8.07L182.87,618.07l-24.94,32.95
			c-15.36,20.21,18.9,39.38,34,19.82l173.14-229.71l15.62-19.95l96.87,24.55c5.26,2.34,10.74,3.06,16.43,2.16
			c5.69-0.9,10.67-3.29,14.95-7.14c7.61-7.09,14.7-14.7,22.05-22.05l195.19-194.4c2.76-2.62,5.38-5.38,8.14-8.14l33.34,33.08
			l33.87-126.41l-126.41,33.87L706.48,188.06z"/>
	</g>
</g>
</svg>
