<?xml version="1.0" encoding="utf-8"?>
<!-- Generator: Adobe Illustrator 28.1.0, SVG Export Plug-In . SVG Version: 6.00 Build 0)  -->
<svg version="1.1" id="Camada_1" xmlns="http://www.w3.org/2000/svg" xmlns:xlink="http://www.w3.org/1999/xlink" x="0px" y="0px"
	 viewBox="0 0 1114 1080" style="enable-background:new 0 0 1114 1080;" xml:space="preserve">
<style type="text/css">
	.st0{clip-path:url(#SVGID_00000104685727253911164920000009420014181585791677_);fill:#FFFFFF;}
</style>
<g>
	<defs>
		<rect id="SVGID_1_" x="69.92" y="53" width="974.67" height="974.67"/>
	</defs>
	<clipPath id="SVGID_00000141458036279017129520000003375522033827324351_">
		<use xlink:href="#SVGID_1_"  style="overflow:visible;"/>
	</clipPath>
	<path style="clip-path:url(#SVGID_00000141458036279017129520000003375522033827324351_);fill:#FFFFFF;" d="M858.54,549.69
		c0,165.89-134.48,300.37-300.37,300.37c-165.89,0-300.37-134.48-300.37-300.37c0-165.89,134.48-300.37,300.37-300.37
		C724.06,249.31,858.54,383.8,858.54,549.69L858.54,549.69z M815.84,549.69c0-142.31-115.36-257.67-257.67-257.67
		c-142.31,0-257.67,115.36-257.67,257.67c0,142.31,115.36,257.67,257.67,257.67C700.48,807.35,815.84,692,815.84,549.69z"/>
	<path style="clip-path:url(#SVGID_00000141458036279017129520000003375522033827324351_);fill:#FFFFFF;" d="M739.54,549.69
		c0,100.16-81.21,181.37-181.37,181.37S376.8,649.85,376.8,549.69c0-100.16,81.21-181.37,181.37-181.37S739.54,449.53,739.54,549.69
		z M696.84,549.69c0-76.58-62.08-138.66-138.66-138.66c-76.58,0-138.66,62.08-138.66,138.66s62.08,138.66,138.66,138.66
		C634.76,688.35,696.84,626.27,696.84,549.69L696.84,549.69z"/>
	<path style="clip-path:url(#SVGID_00000141458036279017129520000003375522033827324351_);fill:#FFFFFF;" d="M664.4,442.49
		c0,34.38-27.96,62.36-62.37,62.36c-34.37,0-62.37-27.97-62.37-62.36c0-34.38,27.97-62.37,62.37-62.37
		C636.48,380.12,664.4,408.04,664.4,442.49z M621.69,442.49c0-10.86-8.8-19.66-19.66-19.66c-10.91,0-19.66,8.74-19.66,19.66
		c0,10.94,8.74,19.66,19.66,19.66C612.95,462.14,621.69,453.38,621.69,442.49z"/>
	<path style="clip-path:url(#SVGID_00000141458036279017129520000003375522033827324351_);fill:#FFFFFF;" d="M286.91,320.52
		c81.71-50.05,173.81-78.2,271.26-78.2c97.46,0,189.56,28.14,271.27,78.2c83.77,51.31,156.51,125.7,212.71,216.34
		c5.12,6.82,5.77,16.31,1.02,24c-53.86,87.37-125.9,164.19-213.73,217.99c-81.71,50.05-173.81,78.19-271.27,78.19
		c-97.46,0-189.56-28.14-271.27-78.19c-83.77-51.31-156.5-125.7-212.7-216.34c-5.12-6.82-5.77-16.31-1.03-24
		C127.04,451.14,199.08,374.32,286.91,320.52L286.91,320.52z M558.17,285.03c-89.42,0-174,25.86-249.08,71.85
		c-75.12,46.02-140.88,112.18-192.68,192.81c51.8,80.62,117.55,146.79,192.67,192.8c75.08,46,159.66,71.86,249.09,71.86
		c89.43,0,174.01-25.86,249.09-71.86c75.13-46.01,140.88-112.17,192.68-192.8c-51.8-80.62-117.55-146.78-192.68-192.8
		C732.18,310.89,647.6,285.03,558.17,285.03L558.17,285.03z"/>
	<path style="clip-path:url(#SVGID_00000141458036279017129520000003375522033827324351_);fill:#FFFFFF;" d="M240.74,199.62h-85.41
		c-11.79,0-21.35-9.56-21.35-21.35V92.86c0-11.79,9.56-21.35,21.35-21.35h85.41c11.79,0,21.35,9.56,21.35,21.35v85.41
		C262.09,190.06,252.53,199.62,240.74,199.62z M176.68,156.91h42.71v-42.71h-42.71V156.91z"/>
	<path style="clip-path:url(#SVGID_00000141458036279017129520000003375522033827324351_);fill:#FFFFFF;" d="M966.72,199.62h-85.41
		c-11.79,0-21.35-9.56-21.35-21.35V92.86c0-11.79,9.56-21.35,21.35-21.35h85.41c11.79,0,21.35,9.56,21.35,21.35v85.41
		C988.07,190.06,978.51,199.62,966.72,199.62z M902.66,156.91h42.71v-42.71h-42.71V156.91z"/>
	<path style="clip-path:url(#SVGID_00000141458036279017129520000003375522033827324351_);fill:#FFFFFF;" d="M240.74,1011.01h-85.41
		c-11.79,0-21.35-9.57-21.35-21.35v-85.41c0-11.79,9.56-21.35,21.35-21.35h85.41c11.79,0,21.35,9.56,21.35,21.35v85.41
		C262.09,1001.45,252.53,1011.01,240.74,1011.01z M176.68,968.31h42.71V925.6h-42.71V968.31z"/>
	<path style="clip-path:url(#SVGID_00000141458036279017129520000003375522033827324351_);fill:#FFFFFF;" d="M966.72,1011.01h-85.41
		c-11.79,0-21.35-9.57-21.35-21.35v-85.41c0-11.79,9.56-21.35,21.35-21.35h85.41c11.79,0,21.35,9.56,21.35,21.35v85.41
		C988.07,1001.45,978.51,1011.01,966.72,1011.01z M902.66,968.31h42.71V925.6h-42.71V968.31z"/>
	<path style="clip-path:url(#SVGID_00000141458036279017129520000003375522033827324351_);fill:#FFFFFF;" d="M304.78,925.6
		c-11.79,0-21.35,9.56-21.35,21.35c0,11.79,9.56,21.35,21.35,21.35h512.46c11.79,0,21.35-9.56,21.35-21.35
		c0-11.79-9.56-21.35-21.35-21.35H304.78z"/>
	<path style="clip-path:url(#SVGID_00000141458036279017129520000003375522033827324351_);fill:#FFFFFF;" d="M304.78,114.21
		c-11.79,0-21.35,9.56-21.35,21.35c0,11.79,9.56,21.35,21.35,21.35h512.46c11.79,0,21.35-9.56,21.35-21.35
		c0-11.79-9.56-21.35-21.35-21.35H304.78z"/>
	<path style="clip-path:url(#SVGID_00000141458036279017129520000003375522033827324351_);fill:#FFFFFF;" d="M902.65,840.18
		c0,11.79,9.57,21.35,21.35,21.35c11.79,0,21.35-9.56,21.35-21.35v-85.42c0-11.79-9.56-21.35-21.35-21.35
		c-11.79,0-21.35,9.56-21.35,21.35V840.18z"/>
	<path style="clip-path:url(#SVGID_00000141458036279017129520000003375522033827324351_);fill:#FFFFFF;" d="M176.67,840.18
		c0,11.79,9.56,21.35,21.35,21.35c11.79,0,21.35-9.56,21.35-21.35v-85.42c0-11.79-9.56-21.35-21.35-21.35
		c-11.79,0-21.35,9.56-21.35,21.35V840.18z"/>
	<path style="clip-path:url(#SVGID_00000141458036279017129520000003375522033827324351_);fill:#FFFFFF;" d="M902.65,327.74
		c0,11.79,9.57,21.35,21.35,21.35c11.79,0,21.35-9.56,21.35-21.35v-85.42c0-11.79-9.56-21.35-21.35-21.35
		c-11.79,0-21.35,9.56-21.35,21.35V327.74z"/>
	<path style="clip-path:url(#SVGID_00000141458036279017129520000003375522033827324351_);fill:#FFFFFF;" d="M176.67,327.74
		c0,11.79,9.56,21.35,21.35,21.35c11.79,0,21.35-9.56,21.35-21.35v-85.42c0-11.79-9.56-21.35-21.35-21.35
		c-11.79,0-21.35,9.56-21.35,21.35V327.74z"/>
</g>
</svg>
