<svg class="clip-path-group7" width="245" height="245" viewBox="0 0 245 245" fill="none" xmlns="http://www.w3.org/2000/svg">
                <mask id="mask0_21_59" style="mask-type: luminance" maskUnits="userSpaceOnUse" x="0" y="0" width="245" height="245">
                  <path d="M244.942 0.450684H0.938965V244.022H244.942V0.450684Z" fill="white"></path>
                </mask>
                <g mask="url(#mask0_21_59)">
                  <path fill-rule="evenodd" clip-rule="evenodd" d="M36.3766 118.197C42.2919 151.452 71.4109 176.735 106.418 176.735C145.674 176.735 177.562 144.93 177.562 105.717C177.562 66.5037 145.701 34.6985 106.418 34.6985C67.1358 34.6985 35.2743 66.5037 35.2743 105.717C35.2743 106.737 35.2743 107.757 35.328 108.75H60.1989L72.6208 89.1028C73.5619 87.6266 75.2558 86.7678 77.0304 86.9288C78.778 87.0899 80.3106 88.1903 80.9828 89.8275L94.0501 121.391L112.172 68.5704C112.871 66.5574 114.807 65.2691 116.931 65.4033C119.055 65.5375 120.83 67.0405 121.26 69.134L133.655 127.081L146.696 100.537C147.852 98.2016 150.675 97.2353 153.014 98.3894C155.353 99.5435 156.321 102.362 155.165 104.697L136.129 143.48C135.242 145.279 133.306 146.325 131.316 146.084C129.326 145.842 127.686 144.366 127.283 142.38L115.587 87.7608L98.9436 136.314C98.2983 138.166 96.5775 139.428 94.6147 139.508C92.6519 139.562 90.8505 138.408 90.0976 136.583L75.7398 101.905L66.7863 116.05C65.9259 117.419 64.4202 118.251 62.8069 118.251H36.3766V118.197ZM25.8368 105.717C25.8368 150.11 61.9465 186.156 106.418 186.156C150.89 186.156 187 150.11 187 105.717C187 61.3236 150.89 25.2777 106.418 25.2777C61.9465 25.2777 25.8368 61.3236 25.8368 105.717ZM14.0063 105.717C14.0063 156.632 55.4129 197.965 106.418 197.965C157.424 197.965 198.857 156.632 198.857 105.717C198.857 54.8015 157.424 13.4681 106.418 13.4681C55.4129 13.4681 14.0063 54.8015 14.0063 105.717ZM188.721 165.65C182.483 174.185 174.927 181.7 166.404 187.927L204.315 225.771C210.472 231.918 220.475 231.918 226.632 225.771C232.789 219.625 232.789 209.641 226.632 203.494L188.721 165.65ZM158.338 193.215C143.12 202.233 125.374 207.413 106.418 207.413C50.1968 207.413 4.54199 161.866 4.54199 105.717C4.54199 49.5677 50.1968 4.04736 106.418 4.04736C162.64 4.04736 208.295 49.6214 208.295 105.744C208.295 124.692 203.105 142.434 194.044 157.625L233.327 196.838C243.167 206.661 243.167 222.604 233.327 232.454C223.486 242.305 207.515 242.305 197.647 232.454L158.365 193.241L158.338 193.215Z" fill="white"></path>
                </g>
              </svg>