<svg class="clip-path-group5" width="245" height="204" viewBox="0 0 245 204" fill="none" xmlns="http://www.w3.org/2000/svg">
                <mask id="mask0_21_65" style="mask-type: luminance" maskUnits="userSpaceOnUse" x="0" y="0" width="245" height="204">
                  <path d="M244.089 0.356689H0.0864258V203.587H244.089V0.356689Z" fill="white"></path>
                </mask>
                <g mask="url(#mask0_21_65)">
                  <path d="M68.5416 111.209C68.5416 108.455 69.9666 105.095 72.5209 101.4C72.8436 101.445 73.1931 101.445 73.5158 101.49L79.2697 130.222H77.1455C72.6554 123.123 68.5685 114.703 68.5685 111.209H68.5416ZM79.2428 147.063C78.0328 148.071 77.0918 149.213 76.2852 150.4C70.2893 144.375 53.3233 123.705 53.3233 111.232C53.3233 105.028 56.4154 99.0266 59.9645 94.1222C61.3627 96.0481 63.2179 97.7053 65.4495 98.9818C62.4919 103.394 60.9325 107.536 60.9325 111.232C60.9325 119.025 73.5158 140.434 80.9904 145.898C80.3989 146.279 79.7805 146.637 79.2428 147.085V147.063ZM100.349 151.206L105.431 159.671L110.378 157.611V161.888H117.987V155.55H111.481L107.69 149.213H190.261V193.554H53.3233V149.213H65.6377C68.0038 151.967 70.1011 154.139 71.6336 155.55H64.7236V161.888H72.3327V156.177C72.8436 156.603 73.3007 156.961 73.5964 157.14C73.6502 157.185 73.7309 157.207 73.7846 157.23C73.4351 161.619 75.2097 166.12 79.2159 169.48L79.6461 169.838L90.9657 174.541L94.3804 168.875L84.2169 164.642C80.1838 160.925 80.2914 155.147 84.6202 151.542C88.9222 147.936 95.8592 147.847 100.349 151.206ZM76.1507 76.3633C76.6078 76.3633 77.038 76.4529 77.4682 76.5201C74.161 81.4917 72.3327 87.1575 72.3327 92.8681C72.3327 93.5175 72.3865 94.167 72.4403 94.8388C67.977 93.5399 64.7236 90.0464 64.7236 85.9034C64.7236 80.6631 69.8322 76.4081 76.1238 76.4081L76.1507 76.3633ZM148.397 73.2057H154.097L157.055 76.4977C157.055 76.4977 157.135 76.6097 157.189 76.6545C161.33 81.3349 163.588 87.0679 163.588 92.8681C163.588 94.3685 163.427 95.869 163.131 97.347L156.544 130.222H86.9326L80.3451 97.347C80.0494 95.869 79.8881 94.3461 79.8881 92.8681C79.8881 87.8517 81.6089 82.8577 84.7547 78.5804L86.4755 76.4529L89.4062 73.2057H148.343H148.397ZM83.733 19.3694C83.733 14.129 88.8416 9.87409 95.1332 9.87409H100.833L112.234 22.5494H131.243L142.643 9.87409H148.343C154.635 9.87409 159.744 14.129 159.744 19.3694V57.3728C159.744 62.6131 154.635 66.8681 148.343 66.8681H95.1063C88.8147 66.8681 83.7061 62.6131 83.7061 57.3728V19.3694H83.733ZM133.179 9.85169L127.479 16.1893H116.078L110.378 9.85169H133.206H133.179ZM178.807 85.881C178.807 90.0688 175.526 93.5847 171.09 94.8612C171.144 94.1894 171.198 93.5399 171.198 92.8681C171.198 87.1575 169.396 81.5141 166.062 76.5201C166.492 76.4753 166.949 76.3633 167.38 76.3633C173.671 76.3633 178.78 80.6183 178.78 85.8586L178.807 85.881ZM209.243 60.8888V50.7216C210.48 50.9232 211.744 51.0352 213.034 51.0352C214.325 51.0352 215.616 50.9232 216.825 50.7216V60.5528C216.825 75.3108 203.301 87.471 186.039 88.9043C186.255 87.9189 186.416 86.9112 186.416 85.881C186.416 84.7389 186.255 83.6416 185.986 82.5666C199.053 81.3349 209.243 72.086 209.243 60.8888ZM72.3327 47.8552C70.2355 47.8552 68.5416 46.4219 68.5416 44.6975V32.0222C68.5416 30.2755 70.2624 28.8646 72.3327 28.8646H76.1238V47.8775H72.3327V47.8552ZM171.198 28.8646C173.295 28.8646 174.989 30.2979 174.989 32.0222V44.6975C174.989 46.4443 173.268 47.8552 171.198 47.8552H167.406V28.8422H171.198V28.8646ZM239.653 130.222H164.288L170.041 101.49C175.15 100.885 179.56 98.6459 182.544 95.3763C182.571 95.3763 182.598 95.3763 182.625 95.3763C205.694 95.3763 224.461 79.7449 224.461 60.5304V47.788C229.059 44.8991 232.071 40.353 232.071 35.2023V34.6872L228.064 24.6992L220.859 26.7147L224.461 35.6949C224.166 40.7113 219.165 44.7199 213.061 44.7199C206.958 44.7199 201.957 40.7113 201.661 35.6949L205.264 26.7147L198.058 24.6992L194.052 34.6872V35.2023C194.052 40.353 197.063 44.8991 201.661 47.788V60.8888C201.661 69.4211 193.326 76.3633 183.082 76.3633C182.92 76.3633 182.759 76.3857 182.598 76.3857C179.129 72.5563 173.671 70.0257 167.46 70.0257C165.471 70.0257 163.481 70.3392 161.572 70.8767L160.389 69.5778C164.664 66.6665 167.46 62.2996 167.46 57.3728V54.2152H171.251C177.543 54.2152 182.652 49.9602 182.652 44.7199V32.0446C182.652 26.8043 177.543 22.5494 171.251 22.5494H167.46V19.3917C167.46 10.6579 158.937 3.55884 148.451 3.55884H95.2139C84.7278 3.55884 76.2045 10.6579 76.2045 19.3917V22.5494H72.4134C66.1217 22.5494 61.0131 26.8043 61.0131 32.0446V44.7199C61.0131 49.9602 66.1217 54.2152 72.4134 54.2152H76.2045V57.3728C76.2045 62.322 79.0008 66.6889 83.2759 69.5778L82.0928 70.8767C80.1569 70.3392 78.1942 70.0257 76.2045 70.0257C65.7184 70.0257 57.1951 77.1248 57.1951 85.8586C57.1951 85.9706 57.222 86.0826 57.2489 86.1945C51.8176 92.3754 45.7949 101.4 45.7949 111.209C45.7949 116.83 48.5105 123.593 52.2478 130.222H3.87744V136.56H56.039C57.4909 138.754 59.0235 140.882 60.5291 142.897H45.7142V199.914H197.816V142.897H96.9884C94.1384 142.36 91.2076 142.36 88.3576 142.897C87.7392 142.315 87.0401 141.755 86.2604 141.33C84.9967 140.636 83.3297 138.889 81.5282 136.56H239.653V130.222Z" fill="white"></path>
                  <path d="M87.551 180.901H79.9419V187.239H87.551V180.901Z" fill="white"></path>
                  <path d="M72.3323 180.901H64.7231V187.239H72.3323V180.901Z" fill="white"></path>
                  <path d="M178.806 180.901H171.197V187.239H178.806V180.901Z" fill="white"></path>
                  <path d="M163.615 180.901H156.006V187.239H163.615V180.901Z" fill="white"></path>
                  <path d="M133.179 180.901H125.57V187.239H133.179V180.901Z" fill="white"></path>
                  <path d="M117.96 180.901H110.351V187.239H117.96V180.901Z" fill="white"></path>
                  <path d="M148.397 180.901H140.788V187.239H148.397V180.901Z" fill="white"></path>
                  <path d="M102.769 180.901H95.1597V187.239H102.769V180.901Z" fill="white"></path>
                  <path d="M72.3323 168.226H64.7231V174.563H72.3323V168.226Z" fill="white"></path>
                  <path d="M133.179 168.226H125.57V174.563H133.179V168.226Z" fill="white"></path>
                  <path d="M102.769 168.226H95.1597V174.563H102.769V168.226Z" fill="white"></path>
                  <path d="M117.96 168.226H110.351V174.563H117.96V168.226Z" fill="white"></path>
                  <path d="M178.806 168.226H171.197V174.563H178.806V168.226Z" fill="white"></path>
                  <path d="M163.615 168.226H156.006V174.563H163.615V168.226Z" fill="white"></path>
                  <path d="M148.397 168.226H140.788V174.563H148.397V168.226Z" fill="white"></path>
                  <path d="M133.179 155.55H125.57V161.888H133.179V155.55Z" fill="white"></path>
                  <path d="M148.397 155.55H140.788V161.888H148.397V155.55Z" fill="white"></path>
                  <path d="M178.806 155.55H171.197V161.888H178.806V155.55Z" fill="white"></path>
                  <path d="M163.615 155.55H156.006V161.888H163.615V155.55Z" fill="white"></path>
                  <path d="M140.788 28.8648C142.885 28.8648 144.579 30.2981 144.579 32.0224C144.579 33.7468 142.858 35.1801 140.788 35.1801C138.718 35.1801 136.997 33.7468 136.997 32.0224C136.997 30.2981 138.691 28.8648 140.788 28.8648ZM140.788 41.5401C147.08 41.5401 152.188 37.2851 152.188 32.0448C152.188 26.8045 147.08 22.5496 140.788 22.5496C134.496 22.5496 129.388 26.8045 129.388 32.0448C129.388 37.2851 134.496 41.5401 140.788 41.5401Z" fill="white"></path>
                  <path d="M102.769 28.8648C104.866 28.8648 106.56 30.2981 106.56 32.0224C106.56 33.7468 104.839 35.1801 102.769 35.1801C100.699 35.1801 98.9778 33.7468 98.9778 32.0224C98.9778 30.2981 100.699 28.8648 102.769 28.8648ZM102.769 41.5401C109.061 41.5401 114.169 37.2851 114.169 32.0448C114.169 26.8045 109.061 22.5496 102.769 22.5496C96.4772 22.5496 91.3687 26.8045 91.3687 32.0448C91.3687 37.2851 96.4772 41.5401 102.769 41.5401Z" fill="white"></path>
                  <path d="M136.889 54.1929L106.56 54.1033V47.8552H98.9512V54.1033C98.9512 57.6416 102.42 60.5305 106.668 60.5305H136.889C141.137 60.5305 144.606 57.6416 144.606 54.1033V47.8552H136.997L136.889 54.1929Z" fill="white"></path>
                  <path d="M95.1599 89.0387C95.1599 87.2919 96.8807 85.8811 98.951 85.8811H144.579C146.676 85.8811 148.37 87.3143 148.37 89.0387V101.714C148.37 103.461 146.649 104.872 144.579 104.872H98.951C96.8538 104.872 95.1599 103.438 95.1599 101.714V89.0387ZM87.5508 101.714C87.5508 106.954 92.6594 111.209 98.951 111.209H144.579C150.871 111.209 155.979 106.954 155.979 101.714V89.0387C155.979 83.7984 150.871 79.5435 144.579 79.5435H98.951C92.6594 79.5435 87.5508 83.7984 87.5508 89.0387V101.714Z" fill="white"></path>
                  <path d="M117.96 117.547H110.351V123.885H117.96V117.547Z" fill="white"></path>
                  <path d="M102.769 117.547H95.1597V123.885H102.769V117.547Z" fill="white"></path>
                  <path d="M148.397 117.547H140.788V123.885H148.397V117.547Z" fill="white"></path>
                  <path d="M133.179 117.547H125.57V123.885H133.179V117.547Z" fill="white"></path>
                </g>
              </svg>