<svg width="228" height="221" viewBox="0 0 228 221" fill="none" xmlns="http://www.w3.org/2000/svg">
<g clip-path="url(#clip0_21_97)">
<path d="M176.139 194.168L52.8639 194.689L52.9452 213.932L176.244 213.411L176.162 194.168L176.139 194.168ZM38.6633 72.0718L95.5089 71.8316C99.2197 71.8159 102.583 70.2759 105.008 67.8289C107.434 65.382 108.945 61.9824 108.929 58.2933L108.772 21.1058C108.756 17.3939 107.217 14.0301 104.771 11.6037C102.324 9.17733 98.9486 7.66582 95.2378 7.68151L22.3879 7.98942C18.6771 8.00511 15.3143 9.5451 12.8887 11.9921C10.4631 14.439 8.95211 17.8386 8.9677 21.5277L9.12488 58.7151C9.14057 62.4271 10.6801 65.7909 13.1263 68.2173C15.5725 70.6437 18.9483 72.1552 22.6591 72.1395C24.4803 72.1318 25.9664 73.6285 25.9741 75.4503L26.0079 83.4435L36.2998 73.0611C36.9572 72.3979 37.7982 72.0755 38.6405 72.0719L38.6633 72.0718ZM93.2148 78.4682C93.6756 79.7643 94.4317 80.8997 95.3691 81.8522C97.0609 83.5303 99.3875 84.5908 101.983 84.5798L121.493 84.4973C123.314 84.4896 124.8 85.9636 124.808 87.8082C124.816 89.6527 123.342 91.1164 121.521 91.1241L102.011 91.2066C97.5943 91.2253 93.5799 89.4432 90.6992 86.5404C88.5273 84.3862 86.9902 81.5916 86.3169 78.4973L40.0572 78.6929L25.0955 93.7862C24.5061 94.3808 23.6654 94.7715 22.732 94.7754C20.9107 94.7831 19.402 93.3093 19.3943 91.4875L19.3394 78.5072C15.1248 77.819 11.3371 75.8082 8.43368 72.9283C4.77579 69.3001 2.50072 64.277 2.47733 58.7432L2.32015 21.5558C2.29676 16.0221 4.52928 10.9798 8.15637 7.32084C11.8062 3.66175 16.8278 1.36324 22.3598 1.33986L95.2097 1.03194C100.742 1.00856 105.783 3.26454 109.44 6.86997C113.098 10.4982 115.373 15.5214 115.397 21.0551L115.423 27.2036L171.79 26.9654C176.184 26.9468 180.198 28.7289 183.102 31.6088C186.005 34.4887 187.821 38.4663 187.839 42.8841L187.974 74.8567C187.993 79.2518 186.211 83.2673 183.332 86.1716C181.201 88.3213 178.453 89.8815 175.383 90.5549L175.438 103.603C175.442 104.446 175.126 105.29 174.492 105.953C173.2 107.257 171.105 107.265 169.802 105.973L154.69 90.9839L136.569 91.0605C134.748 91.0682 133.239 89.5944 133.231 87.7726C133.224 85.9508 134.72 84.4414 136.541 84.4337L156.051 84.3513C156.984 84.3473 157.806 84.731 158.423 85.3432L168.779 95.6156L168.746 87.6224C168.738 85.7779 170.234 84.2913 172.055 84.2836C174.605 84.2728 176.945 83.2154 178.646 81.5002C180.323 79.808 181.383 77.4579 181.372 74.8846L181.237 42.912C181.226 40.3387 180.169 38.0204 178.455 36.3197C176.74 34.6189 174.413 33.5812 171.841 33.5921L115.473 33.8303L115.577 58.2197C115.6 63.7534 113.367 68.7956 109.74 72.4546C106.113 76.1136 101.092 78.3893 95.5595 78.4127L93.2602 78.4224L93.2148 78.4682ZM28.2517 43.3537C26.4304 43.3614 24.9443 41.8647 24.9366 40.0429C24.9289 38.2211 26.4024 36.7346 28.2237 36.7269L89.6452 36.4673C91.4664 36.4596 92.9525 37.9336 92.9602 39.7554C92.9679 41.5771 91.4944 43.0864 89.6732 43.0941L28.2517 43.3537ZM28.3255 60.8202C26.5043 60.8279 25.0181 59.3312 25.0104 57.5094C25.0027 55.6876 26.4761 54.1783 28.2974 54.1706L59.0082 54.0408C60.8294 54.0331 62.3383 55.5298 62.346 57.3515C62.3537 59.1733 60.8575 60.6827 59.0363 60.6904L28.3255 60.8202ZM28.1778 25.8872C26.3566 25.8949 24.8705 24.3982 24.8628 22.5764C24.8551 20.7546 26.3286 19.2681 28.1498 19.2604L89.5714 19.0008C91.3926 18.9931 92.8786 20.4671 92.8863 22.2889C92.894 24.1107 91.4206 25.6199 89.5994 25.6276L28.1778 25.8872ZM97.6406 145.265C94.1859 146.623 91.1425 148.344 88.9653 150.312C87.0829 152.005 85.9294 153.809 85.9369 155.585L85.9938 169.044L87.2915 169.038C90.7974 169.023 94.0134 170.444 96.3224 172.735C98.6315 175.025 100.079 178.207 100.094 181.737C100.104 183.969 99.5431 186.043 98.5492 187.869L130.398 187.735C129.389 185.917 128.834 183.847 128.824 181.615C128.809 178.086 130.23 174.892 132.52 172.582C134.809 170.272 137.99 168.824 141.519 168.809L142.794 168.804L142.737 155.345C142.729 153.523 141.469 151.638 139.436 149.894C137.037 147.854 133.728 146.115 130.035 144.787C129.604 145.312 129.151 145.815 128.698 146.272C124.867 150.137 119.572 152.551 113.721 152.576C107.871 152.6 102.556 150.232 98.7154 146.399C98.3496 146.036 98.0065 145.651 97.6633 145.265L97.6406 145.265ZM41.2886 116.878L41.2699 112.46C41.2622 110.615 40.5039 108.956 39.2921 107.732C38.0803 106.507 36.3925 105.763 34.5485 105.77L18.7719 105.837C16.9507 105.845 15.2693 106.626 14.0451 107.838C12.8436 109.05 12.0995 110.739 12.1072 112.583L12.1804 129.89C13.616 130.203 14.9372 130.402 16.144 130.443C19.2636 130.589 21.5143 129.851 23.1024 128.546C24.7133 127.241 25.775 125.278 26.4485 123.044C27.0547 121.037 27.3415 118.872 27.4462 116.709C27.5296 114.886 29.0716 113.468 30.8933 113.551C31.7358 113.593 32.3972 113.887 33.0371 114.453C33.4941 114.861 36.8066 117.557 41.3115 116.9L41.2886 116.878ZM187.034 116.262C191.453 116.881 194.698 114.294 195.265 113.79C195.923 113.241 196.536 112.897 197.423 112.847C199.244 112.749 200.798 114.154 200.897 115.975C201.02 118.138 201.325 120.323 201.948 122.302C202.641 124.531 203.719 126.462 205.341 127.776C206.94 129.044 209.197 129.763 212.315 129.614C213.521 129.54 214.841 129.352 216.297 129.028L216.223 111.72C216.216 109.876 215.435 108.217 214.223 106.992C213.011 105.79 211.323 105.023 209.479 105.031L193.725 105.098C191.881 105.105 190.223 105.887 188.999 107.099C187.797 108.311 187.03 109.999 187.038 111.844L187.057 116.284L187.034 116.262ZM215.392 135.909C214.437 136.072 213.504 136.167 212.639 136.216C207.745 136.488 204.029 135.205 201.219 132.963C198.432 130.743 196.689 127.676 195.628 124.287C195.351 123.4 195.142 122.513 194.956 121.603C192.843 122.5 190.159 123.171 187.085 122.911L187.119 131.018C187.136 135.026 188.79 138.663 191.442 141.293C194.094 143.924 197.767 145.548 201.773 145.531C205.78 145.514 209.416 143.859 212.045 141.206C213.519 139.72 214.672 137.916 215.415 135.909L215.392 135.909ZM219.178 142.952C220.958 143.879 222.534 145.17 223.838 146.667C226.172 149.39 227.576 152.914 227.592 156.74L227.686 179.125C227.694 180.947 226.221 182.434 224.399 182.441C222.578 182.449 221.069 180.975 221.062 179.153L220.967 156.768C220.958 154.559 220.152 152.536 218.802 150.97C217.613 149.586 216.015 148.568 214.191 148.075C210.696 150.64 206.4 152.161 201.779 152.181C197.157 152.2 192.529 150.603 188.943 147.908C188.261 147.979 187.624 148.187 186.988 148.463C186.147 148.876 185.353 149.494 184.742 150.317L167.016 174.007C166.382 174.83 165.405 175.335 164.381 175.339L141.547 175.436C139.862 175.443 138.317 176.133 137.229 177.23C136.141 178.351 135.442 179.88 135.449 181.565C135.456 183.25 136.146 184.795 137.266 185.884C138.363 186.972 139.914 187.672 141.599 187.665L168.872 187.549C169.965 187.545 170.807 187.427 171.852 186.899C173.783 185.934 175.569 182.989 176.882 181.23L188.608 165.558C189.695 164.096 191.765 163.792 193.25 164.878C194.711 165.965 195.016 168.059 193.907 169.521L182.746 184.439L182.868 213.36L221.205 213.198L221.125 194.138C221.117 192.316 222.614 190.829 224.435 190.822C226.256 190.814 227.742 192.288 227.75 194.11L227.844 216.495C227.852 218.317 226.379 219.803 224.557 219.811L4.6646 220.74C2.84336 220.748 1.33457 219.274 1.32687 217.452L1.23226 195.067C1.22456 193.245 2.72083 191.759 4.54207 191.751C6.36332 191.743 7.84934 193.217 7.85704 195.039L7.9376 214.1L46.2976 213.937L46.1754 185.016L34.8663 170.193C33.7674 168.741 34.0318 166.667 35.5069 165.545C36.9592 164.446 39.0321 164.71 40.1538 166.186L51.7606 181.417C52.8137 182.802 53.8896 184.209 54.9428 185.617C55.5381 186.411 56.2918 187 57.1131 187.407C58.0257 187.858 58.8915 188.037 59.8932 188.033L87.3713 187.917C89.0559 187.909 90.5783 187.22 91.6891 186.099C92.7773 185.002 93.4537 183.45 93.4465 181.765C93.4394 180.08 92.75 178.557 91.6525 177.446C90.5324 176.357 89.0042 175.681 87.3196 175.688L64.4629 175.784C63.4613 175.789 62.4576 175.337 61.8166 174.475L43.8913 150.935C42.8612 149.596 41.355 148.737 39.6696 148.562C36.1296 151.287 31.6971 152.922 26.8936 152.943C22.0901 152.963 17.9404 151.477 14.4237 148.942C12.6499 149.405 11.0606 150.436 9.90528 151.785C8.54599 153.362 7.73509 155.415 7.74462 157.669L7.83923 180.054C7.84693 181.876 6.37343 183.363 4.55218 183.37C2.73094 183.378 1.17662 181.904 1.16892 180.083L1.0743 157.697C1.05794 153.826 2.47706 150.245 4.83303 147.479C6.10175 146.016 7.64451 144.757 9.37085 143.839C6.87438 140.297 5.55903 136.112 5.54084 131.808L5.4597 112.611C5.4442 108.945 6.93258 105.591 9.33553 103.167C11.7385 100.743 15.0559 99.2258 18.7439 99.2102L34.4977 99.1436C38.163 99.1281 41.5159 100.617 43.9392 103.021C46.3626 105.424 47.8792 108.766 47.8947 112.432L47.9759 131.629C47.9939 135.888 46.7357 139.855 44.5871 143.189C46.3894 144.093 47.8971 145.316 49.1333 146.928L66.0512 169.128L79.3235 169.072L79.2666 155.613C79.2506 151.81 81.2621 148.34 84.5052 145.412C87.0227 143.147 90.3608 141.151 94.0423 139.587C92.9844 137.064 92.381 134.334 92.3687 131.441L92.2876 112.244C92.2721 108.578 93.7605 105.224 96.1634 102.8C98.5664 100.376 101.907 98.8587 105.572 98.8432L131.365 98.7342C133.186 98.7265 134.695 100.223 134.703 102.045L134.827 131.262C134.838 133.995 134.325 136.593 133.402 139.011C137.37 140.543 140.975 142.531 143.694 144.865C147.19 147.834 149.345 151.4 149.362 155.34L149.419 168.798L162.691 168.742L179.421 146.4C180.666 144.755 182.209 143.496 183.935 142.646C181.736 139.308 180.444 135.351 180.426 131.092L180.345 111.895C180.329 108.228 181.818 104.875 184.221 102.451C186.624 100.026 189.964 98.5093 193.629 98.4938L209.383 98.4272C213.048 98.4117 216.401 99.9006 218.824 102.304C221.248 104.708 222.764 108.049 222.78 111.715L222.861 130.913C222.879 135.217 221.577 139.412 219.133 142.975L219.178 142.952ZM128.159 121.179L98.9963 121.302L99.039 131.391C99.0559 135.398 100.71 139.035 103.362 141.666C106.014 144.296 109.687 145.92 113.671 145.903C117.654 145.886 121.336 144.231 123.942 141.579C126.572 138.926 128.196 135.253 128.179 131.267L128.136 121.179L128.159 121.179ZM98.9683 114.676L128.131 114.552L128.092 105.375L105.623 105.47C103.779 105.478 102.097 106.259 100.896 107.471C99.6943 108.683 98.9501 110.372 98.9579 112.216L98.9683 114.676ZM13.0973 136.764C13.8571 138.765 15.0257 140.559 16.5117 142.033C19.1637 144.663 22.8131 146.287 26.8199 146.27C30.8266 146.253 34.4622 144.598 37.0918 141.946C39.7214 139.293 41.3451 135.62 41.3282 131.634L41.294 123.527C38.2218 123.814 35.5325 123.142 33.4117 122.285C33.2334 123.197 33.0095 124.086 32.7401 124.976C31.7072 128.373 29.99 131.455 27.2448 133.698C24.4542 135.964 20.7489 137.278 15.8304 137.048C14.9424 137.006 14.0314 136.919 13.0746 136.764L13.0973 136.764Z" fill="white"/>
</g>
<defs>
<clipPath id="clip0_21_97">
<rect width="226.519" height="219.369" fill="white" transform="translate(0.413818 1.43262) rotate(-0.242171)"/>
</clipPath>
</defs>
</svg>
