<svg class="clip-path-group3" width="264" height="263" viewBox="0 0 264 263" fill="none" xmlns="http://www.w3.org/2000/svg">
                <mask id="mask0_13_84" style="mask-type: luminance" maskUnits="userSpaceOnUse" x="0" y="0" width="264" height="263">
                  <path d="M263.385 0.473633H0.890503V262.975H263.385V0.473633Z" fill="white"></path>
                </mask>
                <g mask="url(#mask0_13_84)">
                  <path d="M213.907 178.16C213.571 178.783 212.517 180.245 210.407 180.269H207.051C204.606 180.269 203.072 182.499 203.191 184.776C203.191 212.56 180.586 235.143 152.826 235.143H139.114C136.98 235.143 135.278 236.869 135.278 239.002V256.071H82.4438V226.441C88.4608 223.492 106.632 213.016 115.693 190.314C116.484 188.348 115.525 186.095 113.56 185.303C113.032 185.088 112.505 185.016 111.977 185.04C111.953 185.04 111.906 185.04 111.882 185.04C104.234 185.04 98.0257 178.831 98.0257 171.183C98.0257 163.536 104.234 157.327 111.882 157.327C115.405 157.327 120.679 159.653 123.916 164.088C125.114 165.718 127.368 166.173 129.094 165.07C129.789 164.615 145.562 154.355 147.169 130.909H200.315C200.986 145.7 205.541 160.132 213.907 173.868C214.722 175.187 214.746 176.793 213.979 178.16H213.907ZM57.1052 109.621L70.17 110.484L74.3891 123.238H61.7319L57.1052 109.621ZM60.4613 81.837L68.1324 79.2959L83.2828 92.0254L71.7043 102.861L56.2902 101.854L60.4613 81.837ZM82.4917 123.214L77.4576 107.991L87.3581 98.7378L95.6764 123.214H82.4917ZM186.627 72.8233C187.873 70.2821 190.942 69.2273 193.507 70.4739L210.647 78.8404C213.164 80.063 214.219 83.1795 212.996 85.6966L209.976 91.8576L203.215 88.5494C198.757 86.3679 195.377 93.296 199.835 95.4535L206.596 98.7378L200.698 110.772L189.719 105.426C185.26 103.245 181.88 110.173 186.339 112.33L197.294 117.676L194.585 123.214H161.935L186.603 72.8233H186.627ZM220.404 169.889C212.061 156.177 207.842 141.769 207.842 127.074C207.842 124.94 206.116 123.238 204.007 123.238H203.191L219.924 89.0768C221.434 86.0083 221.65 82.5322 220.523 79.2719C219.421 76.0356 217.095 73.4226 214.027 71.9123L196.887 63.5458C190.534 60.4533 182.839 63.0903 179.723 69.4431L153.401 123.238H143.549C143.549 123.238 143.501 123.238 143.477 123.238C143.453 123.238 143.429 123.238 143.405 123.238H142.015V99.7686C142.015 94.8063 134.32 94.8063 134.32 99.7686V123.238H127.655V99.7686C127.655 94.8063 119.96 94.8063 119.96 99.7686V123.238H103.827L92.7278 90.635C92.5121 89.9877 92.1046 89.3645 91.5532 88.933L62.0914 64.1931C61.0606 63.33 59.6463 63.0663 58.3518 63.4978C57.0813 63.9294 56.1224 65.0321 55.8347 66.3506L47.828 104.635C47.6842 105.306 47.7321 106.026 47.9479 106.673L53.5813 123.262H50.0095C48.2595 123.262 46.7253 124.437 46.2938 126.139C46.15 126.666 42.8418 139.42 42.7939 156.368C42.7219 179.047 48.667 198.393 59.9339 212.273C63.0983 216.156 69.0194 211.266 65.903 207.43C44.7356 181.348 50.8485 141.865 53.0779 130.981H139.354C138.251 144.933 131.299 153.084 127.44 156.608C122.621 151.861 116.412 149.704 111.81 149.704C99.9195 149.704 90.2587 159.365 90.2587 171.255C90.2587 181.276 97.1387 189.714 106.416 192.112C97.4983 209.876 82.2041 218.05 78.3925 219.872C76.3309 219.944 74.6768 221.622 74.6768 223.708V259.979C74.6768 262.112 76.4028 263.838 78.5124 263.838H139.042C141.176 263.838 142.902 262.112 142.902 259.979V242.91H152.778C183.726 242.91 209.113 218.578 210.767 188.012C214.914 187.845 218.558 185.615 220.595 181.947C222.705 178.136 222.609 173.653 220.356 169.937L220.404 169.889Z" fill="white"></path>
                  <path d="M173.298 142.824C165.531 142.824 159.203 149.153 159.203 156.92C159.203 161.882 166.898 161.882 166.898 156.92C166.898 153.396 169.774 150.519 173.298 150.519C176.822 150.519 179.699 153.396 179.699 156.92C179.699 161.882 187.394 161.882 187.394 156.92C187.394 149.153 181.065 142.824 173.298 142.824Z" fill="white"></path>
                  <path d="M65.8551 35.0183H69.8345V38.9978C69.8345 43.9602 77.5295 43.9602 77.5295 38.9978V35.0183H81.5089C86.4711 35.0183 86.4711 27.3231 81.5089 27.3231H77.5295V23.3436C77.5295 18.3812 69.8345 18.3812 69.8345 23.3436V27.3231H65.8551C60.8929 27.3231 60.8929 35.0183 65.8551 35.0183Z" fill="white"></path>
                  <path d="M166.083 16.0318H170.062V20.0112C170.062 24.9736 177.757 24.9736 177.757 20.0112V16.0318H181.736C186.699 16.0318 186.699 8.3365 181.736 8.3365H177.757V4.35703C177.757 -0.605336 170.062 -0.605336 170.062 4.35703V8.3365H166.083C161.12 8.3365 161.12 16.0318 166.083 16.0318Z" fill="white"></path>
                  <path d="M192.764 44.7512H196.743V48.7307C196.743 53.6931 204.438 53.6931 204.438 48.7307V44.7512H208.417C213.38 44.7512 213.38 37.056 208.417 37.056H204.438V33.0765C204.438 28.1141 196.743 28.1141 196.743 33.0765V37.056H192.764C187.801 37.056 187.801 44.7512 192.764 44.7512Z" fill="white"></path>
                  <path d="M146.545 40.7958C146.545 40.9876 146.545 41.1794 146.545 41.3712L146.449 57.1213C141.271 58.3918 137.388 63.0186 137.364 68.5083C137.364 69.9946 137.795 72.1282 142.134 78.6488C139.162 81.8372 135.039 83.6591 130.628 83.6591H130.58C126.217 83.6591 122.166 81.8851 119.241 78.7447C123.652 72.2001 124.107 70.0426 124.131 68.5802C124.131 65.4638 122.933 62.5391 120.727 60.3336C119.169 58.7754 117.251 57.7206 115.166 57.2172L115.262 41.491C115.262 41.2753 115.262 41.0595 115.262 40.8438L146.497 40.7718L146.545 40.7958ZM153.449 81.2858C149.158 75.4604 145.61 70.1625 145.107 68.3645C145.227 66.2069 147.097 64.4809 149.374 64.4809C150.525 64.4809 151.579 64.9124 152.371 65.7035C153.114 66.4467 153.521 67.4296 153.521 68.4844L153.449 81.2858ZM108.046 68.6522C108.046 66.3987 109.964 64.5768 112.313 64.5768C113.464 64.5768 114.519 65.0083 115.31 65.7994C116.005 66.4946 116.412 67.4056 116.46 68.3885C115.933 70.1864 112.337 75.5084 107.974 81.3577L108.046 68.6761V68.6522ZM102.772 96.2448C104.235 96.7722 106.08 96.2448 107.063 95.0462C107.231 94.8544 110.875 90.3235 114.758 85.1215C119.025 89.1249 124.635 91.3783 130.628 91.3783H130.7C136.717 91.3783 142.374 89.077 146.689 85.0495C150.501 90.2276 154.097 94.7106 154.24 94.9023C156.422 97.6352 161.072 96.053 161.096 92.5051L161.216 68.5083C161.216 65.3919 160.018 62.4672 157.812 60.2617C156.757 59.2069 155.511 58.3679 154.168 57.7685L154.264 41.3951C154.336 26.6759 147.001 12.46 133.6 1.36062C129.789 -1.80378 124.875 4.11749 128.686 7.2819C137.676 14.7374 143.501 23.6793 145.658 33.0766L116.316 33.1485C117.347 28.8334 119.169 24.5902 121.758 20.4909C124.419 16.2957 117.899 12.1963 115.262 16.3676C110.252 24.3026 107.663 32.741 107.639 41.4431L107.543 57.8405C103.348 59.6624 100.399 63.7857 100.375 68.5802L100.255 92.577C100.255 94.2071 101.262 95.6695 102.796 96.2208L102.772 96.2448Z" fill="white"></path>
                  <path d="M110.803 167.132C105.84 167.132 105.84 174.828 110.803 174.828C115.765 174.828 115.765 167.132 110.803 167.132Z" fill="white"></path>
                </g>
              </svg>