<svg class="clip-path-group2" width="283" height="283" viewBox="0 0 283 283" fill="none" xmlns="http://www.w3.org/2000/svg">
                <mask id="mask0_13_69" style="mask-type: luminance" maskUnits="userSpaceOnUse" x="0" y="0" width="283" height="283">
                  <path d="M282.687 0.24707H0.38269V282.052H282.687V0.24707Z" fill="white"></path>
                </mask>
                <g mask="url(#mask0_13_69)">
                  <path d="M141.763 154.605C140.034 154.605 138.305 154.783 136.601 155.113C134.897 155.443 133.243 155.951 131.616 156.611C130.014 157.271 128.488 158.083 127.038 159.048C125.588 160.013 124.24 161.105 123.019 162.349C121.799 163.567 120.68 164.913 119.713 166.36C118.747 167.807 117.933 169.33 117.272 170.93C116.61 172.529 116.102 174.179 115.771 175.906C115.441 177.607 115.262 179.333 115.262 181.059C115.262 182.786 115.441 184.512 115.771 186.213C116.102 187.914 116.61 189.564 117.272 191.189C117.933 192.789 118.747 194.312 119.713 195.759C120.68 197.206 121.773 198.552 123.019 199.77C124.24 200.989 125.588 202.106 127.038 203.071C128.488 204.035 130.014 204.848 131.616 205.508C133.218 206.168 134.871 206.676 136.601 207.006C138.305 207.336 140.034 207.514 141.763 207.514C143.493 207.514 145.222 207.336 146.926 207.006C148.63 206.676 150.283 206.168 151.911 205.508C153.513 204.848 155.039 204.035 156.489 203.071C157.939 202.106 159.287 201.014 160.507 199.77C161.728 198.526 162.847 197.206 163.814 195.759C164.78 194.312 165.594 192.789 166.255 191.189C166.917 189.59 167.425 187.939 167.756 186.213C168.086 184.487 168.264 182.786 168.264 181.059C168.264 179.333 168.086 177.607 167.756 175.906C167.425 174.205 166.917 172.554 166.255 170.955C165.594 169.356 164.78 167.832 163.814 166.385C162.847 164.938 161.754 163.593 160.507 162.374C159.287 161.155 157.939 160.038 156.489 159.073C155.039 158.109 153.513 157.296 151.911 156.636C150.309 155.976 148.656 155.468 146.952 155.138C145.248 154.808 143.518 154.631 141.789 154.631L141.763 154.605ZM141.763 216.348C139.449 216.348 137.135 216.12 134.871 215.663C132.608 215.206 130.395 214.546 128.233 213.657C126.097 212.769 124.062 211.677 122.129 210.408C120.196 209.113 118.416 207.666 116.763 206.016C115.11 204.365 113.66 202.588 112.363 200.659C111.066 198.729 109.972 196.698 109.108 194.566C108.218 192.433 107.556 190.224 107.099 187.939C106.641 185.68 106.412 183.37 106.412 181.059C106.412 178.749 106.641 176.439 107.099 174.179C107.556 171.92 108.218 169.711 109.108 167.553C109.998 165.395 111.092 163.389 112.363 161.46C113.66 159.53 115.11 157.753 116.763 156.103C118.416 154.453 120.196 153.006 122.129 151.711C124.062 150.416 126.097 149.35 128.233 148.461C130.37 147.573 132.582 146.913 134.871 146.456C137.135 145.999 139.449 145.77 141.763 145.77C144.078 145.77 146.392 145.999 148.656 146.456C150.919 146.913 153.132 147.573 155.294 148.461C157.43 149.35 159.465 150.442 161.398 151.711C163.33 153.006 165.111 154.453 166.764 156.103C168.417 157.753 169.867 159.53 171.164 161.46C172.461 163.389 173.529 165.42 174.419 167.553C175.309 169.686 175.971 171.894 176.428 174.179C176.886 176.439 177.115 178.749 177.115 181.059C177.115 183.37 176.886 185.68 176.428 187.939C175.971 190.199 175.309 192.408 174.419 194.566C173.529 196.698 172.435 198.729 171.164 200.659C169.867 202.588 168.417 204.365 166.764 206.016C165.111 207.666 163.33 209.113 161.398 210.408C159.465 211.702 157.43 212.794 155.294 213.657C153.157 214.546 150.945 215.206 148.656 215.663C146.367 216.12 144.078 216.348 141.763 216.348Z" fill="white"></path>
                  <path d="M194.765 273.674C194.18 273.674 193.621 273.573 193.087 273.344C192.553 273.116 192.069 272.811 191.663 272.379C191.256 271.973 190.925 271.491 190.696 270.958C190.467 270.424 190.365 269.866 190.365 269.282V242.828C190.365 238.334 173.198 229.601 141.763 229.601C110.328 229.601 93.1613 238.334 93.1613 242.828V269.282C93.1613 269.866 93.0596 270.424 92.8307 270.958C92.6018 271.491 92.2966 271.973 91.8643 272.379C91.4573 272.786 90.9741 273.116 90.44 273.344C89.9059 273.573 89.3464 273.674 88.7614 273.674C88.1765 273.674 87.617 273.573 87.0829 273.344C86.5488 273.116 86.0656 272.811 85.6586 272.379C85.2517 271.973 84.9211 271.491 84.6922 270.958C84.4633 270.424 84.3616 269.866 84.3616 269.282V242.828C84.3616 228.357 113.253 220.766 141.789 220.766C170.324 220.766 199.216 228.331 199.216 242.828V269.282C199.216 269.866 199.114 270.424 198.885 270.958C198.657 271.491 198.351 271.973 197.919 272.379C197.512 272.786 197.029 273.116 196.495 273.344C195.961 273.573 195.401 273.674 194.816 273.674H194.765Z" fill="white"></path>
                  <path d="M216.866 132.543C215.137 132.543 213.407 132.721 211.703 133.051C209.999 133.381 208.346 133.889 206.719 134.549C205.116 135.209 203.59 136.021 202.141 136.986C200.691 137.951 199.343 139.043 198.122 140.287C196.902 141.505 195.783 142.851 194.816 144.298C193.85 145.745 193.036 147.268 192.375 148.868C191.713 150.467 191.205 152.117 190.874 153.844C190.543 155.545 190.365 157.271 190.365 158.997C190.365 160.724 190.543 162.45 190.874 164.151C191.205 165.852 191.713 167.502 192.375 169.127C193.036 170.727 193.85 172.25 194.816 173.697C195.783 175.144 196.876 176.49 198.122 177.708C199.343 178.927 200.691 180.044 202.141 181.009C203.59 181.973 205.116 182.786 206.719 183.446C208.321 184.106 209.974 184.614 211.703 184.944C213.407 185.274 215.137 185.451 216.866 185.451C218.596 185.451 220.325 185.274 222.029 184.944C223.733 184.614 225.386 184.106 227.014 183.446C228.616 182.786 230.142 181.973 231.592 181.009C233.042 180.044 234.39 178.952 235.61 177.708C236.831 176.49 237.95 175.144 238.917 173.697C239.883 172.25 240.697 170.727 241.358 169.127C242.019 167.528 242.528 165.877 242.859 164.151C243.189 162.45 243.367 160.724 243.367 158.997C243.367 157.271 243.189 155.545 242.859 153.844C242.528 152.143 242.019 150.492 241.358 148.893C240.697 147.294 239.883 145.77 238.917 144.323C237.95 142.876 236.857 141.531 235.61 140.312C234.39 139.093 233.042 137.976 231.592 137.011C230.142 136.047 228.616 135.234 227.014 134.574C225.412 133.914 223.759 133.406 222.055 133.076C220.351 132.746 218.621 132.569 216.892 132.569L216.866 132.543ZM216.866 194.286C214.552 194.286 212.238 194.058 209.974 193.601C207.711 193.144 205.498 192.484 203.336 191.595C201.2 190.707 199.165 189.615 197.232 188.346C195.299 187.076 193.519 185.604 191.866 183.954C190.213 182.303 188.763 180.526 187.466 178.597C186.169 176.667 185.075 174.636 184.211 172.504C183.346 170.371 182.659 168.162 182.201 165.877C181.744 163.618 181.515 161.308 181.515 158.997C181.515 156.687 181.744 154.377 182.201 152.117C182.659 149.858 183.32 147.649 184.211 145.491C185.101 143.333 186.194 141.327 187.466 139.398C188.763 137.468 190.213 135.691 191.866 134.041C193.519 132.391 195.299 130.944 197.232 129.649C199.165 128.354 201.2 127.263 203.336 126.399C205.472 125.511 207.685 124.851 209.974 124.394C212.238 123.937 214.552 123.708 216.866 123.708C219.181 123.708 221.495 123.937 223.759 124.394C226.022 124.851 228.235 125.511 230.397 126.399C232.533 127.288 234.568 128.38 236.5 129.649C238.433 130.944 240.214 132.391 241.867 134.041C243.52 135.691 244.97 137.468 246.267 139.398C247.564 141.327 248.657 143.358 249.522 145.491C250.412 147.624 251.073 149.832 251.531 152.117C251.989 154.377 252.218 156.687 252.218 158.997C252.218 161.308 251.989 163.618 251.531 165.877C251.073 168.137 250.412 170.346 249.522 172.504C248.632 174.636 247.538 176.667 246.267 178.597C244.97 180.526 243.52 182.303 241.867 183.928C240.239 185.578 238.433 187.026 236.5 188.32C234.568 189.615 232.533 190.707 230.397 191.57C228.26 192.459 226.048 193.119 223.759 193.576C221.495 194.033 219.181 194.261 216.866 194.261V194.286Z" fill="white"></path>
                  <path d="M269.869 251.638C269.284 251.638 268.724 251.536 268.19 251.308C267.656 251.079 267.173 250.775 266.766 250.343C266.359 249.937 266.028 249.454 265.799 248.921C265.57 248.388 265.469 247.83 265.469 247.246V220.792C265.469 216.298 248.302 207.564 216.867 207.564C198.758 207.564 181.973 210.713 173.122 215.79C172.614 216.095 172.079 216.272 171.494 216.349C170.91 216.425 170.325 216.399 169.765 216.247C169.206 216.095 168.671 215.841 168.214 215.485C167.756 215.13 167.374 214.698 167.069 214.191C166.764 213.683 166.586 213.124 166.51 212.566C166.433 211.982 166.484 211.398 166.637 210.839C166.789 210.281 167.044 209.748 167.4 209.291C167.756 208.834 168.188 208.453 168.697 208.148C178.972 202.258 196.978 198.729 216.841 198.729C245.377 198.729 274.268 206.295 274.268 220.792V247.246C274.268 247.83 274.167 248.388 273.938 248.921C273.709 249.454 273.404 249.937 272.971 250.343C272.564 250.749 272.081 251.079 271.547 251.308C271.013 251.536 270.454 251.638 269.869 251.638Z" fill="white"></path>
                  <path d="M66.6601 132.543C64.9306 132.543 63.2012 132.721 61.4972 133.051C59.7932 133.381 58.1401 133.889 56.5124 134.549C54.8847 135.209 53.3841 136.021 51.9345 136.986C50.4848 137.951 49.1369 139.043 47.9161 140.287C46.6953 141.505 45.5763 142.851 44.6098 144.298C43.6434 145.745 42.8295 147.268 42.1683 148.868C41.507 150.467 40.9984 152.117 40.6677 153.844C40.3371 155.545 40.1591 157.271 40.1591 158.997C40.1591 160.724 40.3371 162.45 40.6677 164.151C40.9984 165.852 41.507 167.502 42.1683 169.127C42.8295 170.727 43.6434 172.25 44.6098 173.697C45.5763 175.144 46.6699 176.49 47.9161 177.708C49.1369 178.927 50.4848 180.044 51.9345 181.009C53.3841 181.973 54.9101 182.786 56.5124 183.446C58.1146 184.106 59.7678 184.614 61.4972 184.944C63.2012 185.274 64.9306 185.451 66.6601 185.451C68.3895 185.451 70.1189 185.274 71.8229 184.944C73.5269 184.614 75.1801 184.106 76.8078 183.446C78.41 182.786 79.936 181.973 81.3857 181.009C82.8353 180.044 84.1833 178.952 85.404 177.708C86.6248 176.49 87.7439 175.144 88.7103 173.697C89.6768 172.25 90.4906 170.727 91.1519 169.127C91.8131 167.528 92.3218 165.877 92.6524 164.151C92.983 162.45 93.161 160.724 93.161 158.997C93.161 157.271 92.983 155.545 92.6524 153.844C92.3218 152.143 91.8131 150.492 91.1519 148.893C90.4906 147.294 89.6768 145.77 88.7103 144.323C87.7439 142.876 86.6503 141.531 85.404 140.312C84.1833 139.093 82.8353 137.976 81.3857 137.011C79.936 136.047 78.41 135.234 76.8078 134.574C75.2055 133.914 73.5524 133.406 71.8484 133.076C70.1444 132.746 68.4149 132.569 66.6855 132.569L66.6601 132.543ZM66.6601 194.286C64.3457 194.286 62.0313 194.058 59.7678 193.601C57.5043 193.144 55.2916 192.484 53.1298 191.595C50.9935 190.707 48.9588 189.615 47.0259 188.346C45.0931 187.076 43.3128 185.604 41.6596 183.954C40.0065 182.303 38.5568 180.526 37.2597 178.597C35.9627 176.667 34.8691 174.636 34.0043 172.504C33.1142 170.371 32.4529 168.162 31.9952 165.877C31.5374 163.618 31.3085 161.308 31.3085 158.997C31.3085 156.687 31.5374 154.377 31.9952 152.117C32.4529 149.858 33.1142 147.649 34.0043 145.491C34.8945 143.358 35.9881 141.327 37.2597 139.398C38.5568 137.468 40.0065 135.691 41.6596 134.041C43.3128 132.391 45.0931 130.944 47.0259 129.649C48.9588 128.354 50.9935 127.263 53.1298 126.399C55.2662 125.511 57.4788 124.851 59.7678 124.394C62.0313 123.937 64.3457 123.708 66.6601 123.708C68.9745 123.708 71.2888 123.937 73.5524 124.394C75.8159 124.851 78.0285 125.511 80.1903 126.399C82.3267 127.288 84.3613 128.38 86.2942 129.649C88.2271 130.944 90.0074 132.391 91.6605 134.041C93.3136 135.691 94.7633 137.468 96.0604 139.398C97.3575 141.327 98.4511 143.358 99.3158 145.491C100.206 147.624 100.867 149.832 101.325 152.117C101.783 154.402 102.012 156.687 102.012 158.997C102.012 161.308 101.783 163.618 101.325 165.877C100.867 168.137 100.206 170.346 99.3158 172.504C98.4256 174.636 97.332 176.667 96.0604 178.597C94.7633 180.526 93.3136 182.303 91.6605 183.928C90.0074 185.578 88.2271 187.026 86.2942 188.32C84.3613 189.615 82.3267 190.707 80.1903 191.57C78.054 192.459 75.8413 193.119 73.5524 193.576C71.2888 194.033 68.9745 194.261 66.6601 194.261V194.286Z" fill="white"></path>
                  <path d="M13.633 251.638C13.0481 251.638 12.4886 251.536 11.9545 251.308C11.4204 251.079 10.9372 250.775 10.5302 250.343C10.1233 249.937 9.79268 249.454 9.56378 248.921C9.33489 248.388 9.23315 247.83 9.23315 247.246V220.792C9.23315 206.32 38.1248 198.729 66.6604 198.729C86.5489 198.729 104.555 202.258 114.779 208.148C115.288 208.428 115.72 208.808 116.076 209.291C116.432 209.748 116.687 210.281 116.839 210.839C116.992 211.398 117.043 211.982 116.967 212.566C116.89 213.15 116.712 213.683 116.407 214.191C116.102 214.698 115.72 215.13 115.263 215.485C114.805 215.841 114.271 216.095 113.711 216.247C113.152 216.399 112.567 216.425 111.982 216.349C111.397 216.272 110.863 216.069 110.354 215.79C101.554 210.713 84.7686 207.564 66.635 207.564C35.2 207.564 18.0329 216.298 18.0329 220.792V247.246C18.0329 247.83 17.9312 248.388 17.7023 248.921C17.4734 249.454 17.1682 249.937 16.7358 250.343C16.3289 250.749 15.8457 251.079 15.3116 251.308C14.7775 251.536 14.218 251.638 13.633 251.638Z" fill="white"></path>
                  <path d="M71.467 119.316C70.5514 119.316 69.7121 119.062 68.9491 118.529C68.1861 117.996 67.652 117.311 67.3214 116.447C66.4058 114.01 65.6174 111.548 64.9307 109.034C64.244 106.521 63.71 103.982 63.2776 101.418C62.8452 98.8537 62.5655 96.2641 62.3874 93.6746C62.2094 91.085 62.184 88.4955 62.2603 85.8805C62.3366 83.291 62.5655 80.7014 62.8961 78.1118C63.2267 75.5223 63.7099 72.9835 64.2949 70.4447C64.8799 67.9059 65.592 65.4179 66.4313 62.9553C67.2705 60.4927 68.2116 58.0808 69.3052 55.7198C70.3733 53.3587 71.5687 51.0484 72.8658 48.7889C74.1628 46.5294 75.5871 44.346 77.0876 42.2388C78.6136 40.1316 80.2158 38.1006 81.9453 36.1457C83.6747 34.1909 85.4804 32.3122 87.3625 30.535C89.2699 28.7579 91.2537 27.0823 93.3137 25.4828C95.3738 23.8834 97.5102 22.4109 99.7228 21.04C101.935 19.669 104.199 18.3996 106.539 17.2572C108.879 16.1147 111.269 15.0738 113.685 14.1598C116.127 13.2459 118.594 12.4589 121.112 11.7734C123.63 11.0879 126.173 10.5548 128.742 10.1232C131.31 9.69159 133.904 9.38693 136.499 9.2346C139.093 9.05689 141.687 9.00611 144.307 9.10767C146.901 9.18383 149.495 9.41232 152.089 9.74236C154.683 10.0724 157.226 10.5548 159.77 11.1387C162.313 11.7226 164.805 12.4335 167.272 13.2713C169.739 14.1091 172.155 15.0484 174.521 16.1401C176.886 17.2064 179.2 18.3996 181.464 19.6944C183.727 20.9892 185.915 22.3855 188.025 23.9088C190.136 25.4321 192.171 27.0315 194.155 28.7579C196.113 30.4588 197.995 32.2868 199.775 34.1655C201.556 36.0696 203.234 38.0498 204.837 40.1062C206.413 42.1626 207.914 44.2952 209.287 46.504C210.661 48.7127 211.932 50.9722 213.077 53.3079C214.221 55.6436 215.264 58.03 216.18 60.4419C216.409 61.0004 216.51 61.559 216.485 62.1429C216.485 62.7268 216.358 63.3107 216.103 63.8439C215.874 64.377 215.518 64.8594 215.111 65.2656C214.705 65.6718 214.196 65.9764 213.636 66.1795C213.077 66.3826 212.517 66.4842 211.907 66.4588C211.322 66.4588 210.762 66.3065 210.203 66.0526C209.669 65.7987 209.186 65.4687 208.804 65.0371C208.397 64.6055 208.092 64.0977 207.914 63.5392C207.1 61.3812 206.185 59.2487 205.142 57.1922C204.099 55.1358 202.98 53.1048 201.759 51.1499C200.538 49.1951 199.216 47.291 197.817 45.4631C196.418 43.6351 194.918 41.858 193.316 40.1824C191.739 38.5068 190.06 36.882 188.331 35.3587C186.601 33.8354 184.77 32.4137 182.888 31.0682C181.006 29.7226 179.048 28.4786 177.064 27.3108C175.055 26.1683 172.995 25.102 170.884 24.1373C168.773 23.1725 166.611 22.3347 164.424 21.5985C162.237 20.8622 159.999 20.2275 157.76 19.6944C155.497 19.1613 153.233 18.755 150.944 18.4504C148.656 18.1457 146.341 17.968 144.027 17.8919C141.712 17.8157 139.398 17.8665 137.084 18.0188C134.769 18.1711 132.48 18.425 130.191 18.8058C127.902 19.1866 125.639 19.669 123.401 20.2783C121.163 20.8876 118.95 21.5731 116.788 22.4109C114.626 23.2487 112.49 24.1373 110.43 25.1782C108.345 26.1937 106.335 27.3361 104.377 28.5548C102.419 29.7734 100.511 31.0935 98.6801 32.4899C96.8489 33.8862 95.0686 35.3841 93.39 36.9835C91.7115 38.5576 90.0838 40.2332 88.5578 41.9595C87.0318 43.6859 85.6076 45.5138 84.2597 47.3925C82.9117 49.2712 81.6655 51.2261 80.4956 53.2064C79.3257 55.1866 78.2829 57.2684 77.3165 59.3756C76.3501 61.4828 75.5108 63.6408 74.7732 65.8241C74.0357 68.0075 73.3998 70.2416 72.8658 72.4757C72.3317 74.7353 71.9247 76.9948 71.6196 79.2797C71.3144 81.5646 71.1363 83.8749 71.06 86.1852C70.9837 88.4955 71.0346 90.8058 71.1872 93.1161C71.3398 95.4264 71.5941 97.7113 71.9756 99.9962C72.3571 102.281 72.8403 104.541 73.4507 106.775C74.0611 109.009 74.7478 111.192 75.5871 113.376C75.7905 113.934 75.8923 114.493 75.8668 115.077C75.8414 115.66 75.7142 116.219 75.4853 116.752C75.2564 117.285 74.9004 117.742 74.4935 118.148C74.0611 118.555 73.5779 118.859 73.0184 119.062C72.5097 119.24 72.001 119.342 71.467 119.342V119.316Z" fill="white"></path>
                  <path d="M141.763 44.346C140.314 44.346 138.864 44.4221 137.44 44.5491C135.99 44.7014 134.566 44.9045 133.142 45.1838C131.717 45.463 130.319 45.8185 128.945 46.2247C127.572 46.6563 126.199 47.1386 124.851 47.6718C123.503 48.2303 122.206 48.8396 120.934 49.5251C119.662 50.2106 118.416 50.9468 117.221 51.7592C116.025 52.5716 114.855 53.4094 113.736 54.3488C112.617 55.2627 111.549 56.2275 110.532 57.243C109.515 58.2585 108.548 59.3248 107.633 60.4419C106.717 61.5589 105.852 62.7268 105.038 63.92C104.225 65.1132 103.487 66.3572 102.8 67.6266C102.114 68.896 101.503 70.2162 100.944 71.5363C100.384 72.8565 99.901 74.2275 99.4941 75.6238C99.0617 76.9947 98.7311 78.4165 98.4513 79.8128C98.1716 81.2345 97.9681 82.6562 97.8155 84.1033C97.6629 85.5504 97.6121 86.9722 97.6121 88.4193C97.6121 89.8664 97.6884 91.3135 97.8155 92.7352C97.9427 94.1569 98.1716 95.604 98.4513 97.0257C98.7311 98.4475 99.0872 99.8438 99.4941 101.215C99.9264 102.586 100.41 103.957 100.944 105.302C101.503 106.648 102.114 107.943 102.8 109.212C103.487 110.481 104.225 111.725 105.038 112.919C105.852 114.112 106.692 115.28 107.633 116.397C108.548 117.514 109.515 118.58 110.532 119.596C111.549 120.611 112.617 121.576 113.736 122.49C114.855 123.404 116.025 124.267 117.221 125.079C118.416 125.892 119.662 126.628 120.934 127.313C122.206 127.999 123.528 128.608 124.851 129.167C126.199 129.725 127.546 130.208 128.945 130.614C130.344 131.02 131.743 131.375 133.142 131.655C134.566 131.934 135.99 132.137 137.44 132.289C138.889 132.442 140.314 132.493 141.763 132.493C143.213 132.493 144.663 132.416 146.087 132.289C147.537 132.137 148.961 131.934 150.385 131.655C151.809 131.375 153.208 131.02 154.582 130.614C155.955 130.182 157.328 129.7 158.676 129.167C160.024 128.634 161.321 127.999 162.593 127.313C163.865 126.628 165.111 125.892 166.306 125.079C167.501 124.267 168.671 123.429 169.79 122.49C170.909 121.576 171.978 120.611 172.995 119.596C174.012 118.58 174.979 117.514 175.894 116.397C176.81 115.28 177.675 114.112 178.488 112.919C179.302 111.725 180.04 110.481 180.726 109.212C181.413 107.943 182.024 106.622 182.583 105.302C183.143 103.957 183.626 102.611 184.033 101.215C184.465 99.8438 184.796 98.4221 185.075 97.0257C185.355 95.604 185.559 94.1823 185.711 92.7352C185.864 91.2881 185.915 89.8664 185.915 88.4193C185.915 86.9722 185.838 85.525 185.686 84.1033C185.533 82.6562 185.33 81.2345 185.05 79.8128C184.77 78.3911 184.414 76.9947 183.982 75.6238C183.549 74.2528 183.066 72.8819 182.507 71.5617C181.947 70.2162 181.337 68.9214 180.65 67.652C179.963 66.3826 179.226 65.1386 178.412 63.9454C177.598 62.7522 176.759 61.5843 175.818 60.4672C174.902 59.3502 173.936 58.2839 172.919 57.2684C171.901 56.2529 170.833 55.2881 169.714 54.3742C168.595 53.4602 167.425 52.597 166.23 51.7846C165.034 50.9722 163.788 50.2359 162.517 49.5505C161.245 48.865 159.948 48.2557 158.6 47.6972C157.252 47.1386 155.904 46.6563 154.531 46.2247C153.157 45.7931 151.733 45.463 150.334 45.1584C148.91 44.8791 147.486 44.6506 146.036 44.5237C144.586 44.3714 143.162 44.3206 141.713 44.2952L141.763 44.346ZM141.763 141.378C140.034 141.378 138.305 141.302 136.575 141.124C134.846 140.947 133.142 140.693 131.438 140.363C129.734 140.033 128.055 139.601 126.402 139.093C124.749 138.586 123.096 138.002 121.493 137.342C119.891 136.682 118.314 135.945 116.788 135.133C115.262 134.32 113.762 133.432 112.338 132.467C110.888 131.502 109.489 130.462 108.167 129.37C106.819 128.278 105.547 127.11 104.301 125.892C103.055 124.673 101.91 123.378 100.817 122.033C99.723 120.687 98.6802 119.291 97.7138 117.869C96.7473 116.422 95.8572 114.95 95.0433 113.426C94.2295 111.903 93.4919 110.329 92.8307 108.73C92.1694 107.13 91.5845 105.505 91.0758 103.83C90.5672 102.154 90.1602 100.504 89.8042 98.8029C89.4736 97.1019 89.2192 95.4009 89.0412 93.6745C88.8632 91.9482 88.7869 90.2218 88.7869 88.4954C88.7869 86.769 88.8632 85.0427 89.0412 83.3163C89.2192 81.5899 89.4736 79.8889 89.8042 78.188C90.1348 76.487 90.5672 74.8114 91.0758 73.1612C91.5845 71.511 92.1694 69.8607 92.8307 68.2613C93.4919 66.6619 94.2295 65.0878 95.0433 63.5646C95.8572 62.0413 96.7473 60.5434 97.7138 59.1217C98.6802 57.6746 99.723 56.2782 100.817 54.9581C101.91 53.6125 103.08 52.3431 104.301 51.0991C105.522 49.8805 106.819 48.7127 108.167 47.621C109.515 46.5293 110.913 45.4884 112.338 44.5237C113.762 43.5589 115.262 42.6704 116.788 41.858C118.314 41.0455 119.891 40.3093 121.493 39.6492C123.096 38.9891 124.723 38.4052 126.402 37.8975C128.055 37.3897 129.734 36.9835 131.438 36.6281C133.142 36.298 134.846 36.0441 136.575 35.8664C138.305 35.6887 140.034 35.6125 141.763 35.6125C143.493 35.6125 145.222 35.6887 146.952 35.8664C148.681 36.0441 150.385 36.298 152.089 36.6281C153.793 36.9581 155.472 37.3897 157.125 37.8975C158.778 38.4052 160.431 38.9891 162.033 39.6492C163.636 40.3093 165.212 41.0455 166.738 41.858C168.264 42.6704 169.765 43.5589 171.189 44.5237C172.613 45.4884 174.038 46.5293 175.36 47.621C176.708 48.7127 177.98 49.8805 179.226 51.0991C180.447 52.3178 181.617 53.6125 182.71 54.9581C183.804 56.3036 184.847 57.7 185.813 59.1217C186.779 60.5688 187.67 62.0413 188.483 63.5646C189.297 65.0878 190.035 66.6619 190.696 68.2613C191.357 69.8607 191.942 71.4856 192.451 73.1612C192.96 74.8368 193.367 76.487 193.723 78.188C194.053 79.8889 194.308 81.5899 194.486 83.3163C194.664 85.0427 194.74 86.769 194.74 88.4954C194.74 90.2218 194.664 91.9482 194.486 93.6745C194.308 95.4009 194.053 97.1019 193.723 98.8029C193.392 100.504 192.96 102.179 192.451 103.83C191.942 105.48 191.357 107.105 190.696 108.73C190.035 110.329 189.297 111.903 188.458 113.426C187.644 114.95 186.754 116.447 185.788 117.869C184.821 119.291 183.778 120.687 182.685 122.033C181.591 123.378 180.421 124.648 179.2 125.892C177.98 127.136 176.683 128.278 175.335 129.37C173.987 130.462 172.613 131.502 171.164 132.467C169.714 133.432 168.239 134.32 166.713 135.133C165.187 135.945 163.61 136.682 162.008 137.367C160.406 138.052 158.778 138.611 157.099 139.119C155.446 139.627 153.768 140.033 152.064 140.388C150.36 140.718 148.656 140.972 146.926 141.15C145.197 141.328 143.467 141.404 141.738 141.404L141.763 141.378Z" fill="white"></path>
                  <path d="M141.763 70.8001C140.593 70.8001 139.449 70.9016 138.304 71.1301C137.16 71.3586 136.066 71.6886 134.998 72.1456C133.93 72.5772 132.913 73.1357 131.946 73.7704C130.98 74.4051 130.09 75.1414 129.276 75.9538C128.462 76.7662 127.724 77.6548 127.089 78.6195C126.453 79.5843 125.893 80.5998 125.461 81.6661C125.029 82.7323 124.672 83.8494 124.444 84.9665C124.215 86.1089 124.113 87.2514 124.113 88.4192C124.113 89.5871 124.215 90.7295 124.444 91.872C124.672 93.0144 125.003 94.1061 125.461 95.1724C125.893 96.2387 126.453 97.2542 127.089 98.2189C127.724 99.1837 128.462 100.072 129.276 100.885C130.09 101.697 130.98 102.433 131.946 103.068C132.913 103.703 133.93 104.261 134.998 104.693C136.066 105.124 137.185 105.48 138.304 105.708C139.423 105.937 140.593 106.038 141.763 106.038C142.933 106.038 144.078 105.937 145.222 105.708C146.367 105.48 147.46 105.15 148.528 104.693C149.597 104.261 150.614 103.703 151.58 103.068C152.547 102.433 153.437 101.697 154.251 100.885C155.065 100.072 155.802 99.1837 156.438 98.2189C157.074 97.2542 157.633 96.2387 158.066 95.1724C158.498 94.1061 158.854 92.989 159.083 91.872C159.312 90.7295 159.414 89.5871 159.414 88.4192C159.414 87.2514 159.312 86.1089 159.083 84.9665C158.854 83.824 158.524 82.7323 158.066 81.6661C157.633 80.5998 157.074 79.5843 156.438 78.6195C155.802 77.6548 155.065 76.7662 154.251 75.9538C153.437 75.1414 152.547 74.4051 151.58 73.7704C150.614 73.1357 149.597 72.5772 148.528 72.1456C147.46 71.714 146.341 71.3586 145.222 71.1301C144.103 70.9016 142.933 70.8001 141.763 70.8001ZM141.763 114.924C140.034 114.924 138.304 114.746 136.6 114.416C134.896 114.086 133.243 113.579 131.616 112.918C130.013 112.258 128.487 111.446 127.038 110.481C125.588 109.517 124.24 108.425 123.019 107.181C121.799 105.962 120.68 104.617 119.713 103.17C118.747 101.722 117.933 100.199 117.272 98.5998C116.61 97.0003 116.102 95.3501 115.771 93.6237C115.44 91.9227 115.262 90.1964 115.262 88.47C115.262 86.7436 115.44 85.0173 115.771 83.3163C116.102 81.6153 116.61 79.9651 117.272 78.3403C117.933 76.7154 118.747 75.2175 119.713 73.7704C120.68 72.3233 121.773 70.9778 123.019 69.7592C124.24 68.5405 125.588 67.4235 127.038 66.4587C128.487 65.494 130.013 64.6816 131.616 64.0215C133.218 63.3614 134.871 62.8537 136.6 62.5236C138.304 62.1936 140.034 62.0159 141.763 62.0159C143.493 62.0159 145.222 62.1936 146.926 62.5236C148.63 62.8537 150.283 63.3614 151.911 64.0215C153.539 64.6816 155.039 65.494 156.489 66.4587C157.939 67.4235 159.287 68.5152 160.507 69.7592C161.728 70.9778 162.847 72.3233 163.814 73.7704C164.78 75.2175 165.594 76.7408 166.255 78.3403C166.916 79.9397 167.425 81.5899 167.756 83.3163C168.086 85.0426 168.264 86.7436 168.264 88.47C168.264 90.1964 168.086 91.9227 167.756 93.6237C167.425 95.3247 166.916 96.9749 166.255 98.5744C165.594 100.174 164.78 101.697 163.814 103.144C162.847 104.591 161.753 105.937 160.507 107.155C159.287 108.374 157.939 109.491 156.489 110.456C155.039 111.421 153.513 112.233 151.911 112.893C150.309 113.553 148.656 114.061 146.952 114.391C145.248 114.721 143.518 114.899 141.789 114.899L141.763 114.924Z" fill="white"></path>
                  <path d="M212.543 84.0525H236.501L245.682 75.2429H221.724L212.543 84.0525ZM221.724 101.672H245.682L236.501 92.8621H212.543L221.724 101.672ZM256.618 110.507H219.918C218.723 110.507 217.706 110.1 216.866 109.263L199.801 92.8621H141.763C141.178 92.8621 140.619 92.7605 140.085 92.5321C139.551 92.3036 139.068 91.9989 138.661 91.5673C138.254 91.1611 137.923 90.6787 137.694 90.1456C137.465 89.6125 137.364 89.0539 137.364 88.47C137.364 87.8861 137.465 87.3275 137.694 86.7944C137.923 86.2613 138.228 85.7789 138.661 85.3727C139.068 84.9665 139.551 84.6364 140.085 84.4079C140.619 84.1795 141.178 84.0779 141.763 84.0779H199.801L216.866 67.6774C217.731 66.8649 218.748 66.4333 219.918 66.4333H256.618C257.508 66.4333 258.347 66.6872 259.085 67.195C259.822 67.7027 260.382 68.3628 260.713 69.2006C261.043 70.0384 261.12 70.9016 260.942 71.7648C260.763 72.6534 260.331 73.3896 259.695 74.0243L244.639 88.4954L259.695 102.966C260.357 103.601 260.763 104.337 260.942 105.226C261.12 106.115 261.043 106.952 260.713 107.79C260.382 108.628 259.822 109.288 259.085 109.796C258.347 110.304 257.508 110.557 256.618 110.557V110.507Z" fill="white"></path>
                </g>
              </svg>