<svg class="clip-path-group4" width="229" height="228" viewBox="0 0 229 228" fill="none" xmlns="http://www.w3.org/2000/svg">
                <mask id="mask0_21_100" style="mask-type: luminance" maskUnits="userSpaceOnUse" x="0" y="0" width="229" height="228">
                  <path d="M228.12 0.82959H0.755371V227.792H228.12V0.82959Z" fill="white"></path>
                </mask>
                <g mask="url(#mask0_21_100)">
                  <path d="M182.19 76.3018H148.16V83.8558H185.951C188.048 83.8558 189.735 82.1721 189.735 80.0788V23.4689C189.735 21.3756 188.048 19.6919 185.951 19.6919H144.376V27.2459H182.168V76.3018H182.19Z" fill="white"></path>
                  <path d="M189.758 91.387H148.183V98.941H189.758V91.387Z" fill="white"></path>
                  <path d="M189.758 106.495H148.183V114.049H189.758V106.495Z" fill="white"></path>
                  <path d="M185.974 121.581H148.183V129.135H182.213V136.689H148.183V144.243H185.974C188.071 144.243 189.758 142.559 189.758 140.466V125.381C189.758 123.287 188.071 121.604 185.974 121.604V121.581Z" fill="white"></path>
                  <path d="M170.862 151.774H148.183V159.328H170.862V151.774Z" fill="white"></path>
                  <path d="M189.758 151.774H178.407V159.328H189.758V151.774Z" fill="white"></path>
                  <path d="M189.758 166.859H148.183V174.413H189.758V166.859Z" fill="white"></path>
                  <path d="M27.2183 42.3314H133.071V219.669H27.2183V42.3314ZM95.2568 12.1607L125.504 34.8001H95.2568V12.1607ZM201.11 8.38364V185.722H140.639V38.5543C140.639 37.3712 140.046 36.279 139.089 35.5964L139.134 35.5509L102.847 8.38364H201.132H201.11ZM19.6509 38.5543V223.447C19.6509 225.54 21.3376 227.224 23.4346 227.224H136.832C138.929 227.224 140.616 225.54 140.616 223.447V193.253H204.87C206.967 193.253 208.654 191.569 208.654 189.476V4.60661C208.654 2.51332 206.967 0.82959 204.87 0.82959H91.473C91.473 0.82959 91.3363 0.852343 91.2679 0.875096C90.9032 0.875096 90.5385 0.966109 90.1966 1.10263C90.1054 1.14813 89.9915 1.14813 89.9003 1.19364C89.8091 1.23915 89.8091 1.21639 89.7635 1.23915C89.4216 1.42117 89.1025 1.6487 88.829 1.92174C88.7606 1.99 88.715 2.05826 88.6694 2.12652C88.4187 2.3768 88.2364 2.6726 88.0768 2.99114C88.0084 3.10491 87.9628 3.21867 87.9401 3.33244C87.7805 3.74199 87.6893 4.19706 87.6665 4.62937V34.8228H23.4346C21.3376 34.8228 19.6509 36.5065 19.6509 38.5998V38.5543Z" fill="white"></path>
                  <path d="M114.152 107.929L104.511 103.105C103.439 102.582 102.186 102.582 101.137 103.105L87.9854 109.681L67.1294 95.8012C65.8529 94.9593 64.2118 94.9593 62.9354 95.8012L46.1366 106.996V61.2164H114.175V107.929H114.152ZM114.152 125.358H46.1138V116.052L65.0096 103.469L85.5921 117.166C86.709 117.917 88.1677 118.008 89.3758 117.394L102.824 110.705L114.175 116.37V125.358H114.152ZM117.936 53.6624H42.3301C40.2331 53.6624 38.5464 55.3461 38.5464 57.4394V129.135C38.5464 131.228 40.2331 132.912 42.3301 132.912H117.936C120.033 132.912 121.72 131.228 121.72 129.135V57.4394C121.72 55.3461 120.033 53.6624 117.936 53.6624Z" fill="white"></path>
                  <path d="M91.4729 76.3018C95.6441 76.3018 99.0403 79.692 99.0403 83.8559C99.0403 88.0197 95.6441 91.4099 91.4729 91.4099C87.3017 91.4099 83.9055 88.0197 83.9055 83.8559C83.9055 79.692 87.3017 76.3018 91.4729 76.3018ZM91.4729 98.9412C99.8153 98.9412 106.585 92.1835 106.585 83.8559C106.585 75.5282 99.8153 68.7705 91.4729 68.7705C83.1305 68.7705 76.3608 75.5282 76.3608 83.8559C76.3608 92.1835 83.1305 98.9412 91.4729 98.9412Z" fill="white"></path>
                  <path d="M121.72 185.721H76.3608V193.275H121.72V185.721Z" fill="white"></path>
                  <path d="M68.7933 185.721H38.5464V193.275H68.7933V185.721Z" fill="white"></path>
                  <path d="M46.1138 147.997H76.3607V170.637H46.1138V147.997ZM42.3301 178.168H80.1216C82.2186 178.168 83.9054 176.484 83.9054 174.391V144.197C83.9054 142.104 82.2186 140.42 80.1216 140.42H42.3301C40.2331 140.42 38.5464 142.104 38.5464 144.197V174.391C38.5464 176.484 40.2331 178.168 42.3301 178.168Z" fill="white"></path>
                  <path d="M121.72 140.443H91.4727V147.997H121.72V140.443Z" fill="white"></path>
                  <path d="M106.585 155.528H91.4727V163.082H106.585V155.528Z" fill="white"></path>
                  <path d="M121.72 155.528H114.152V163.082H121.72V155.528Z" fill="white"></path>
                  <path d="M121.72 170.636H91.4727V178.19H121.72V170.636Z" fill="white"></path>
                  <path d="M95.2565 200.83H38.5464V208.384H95.2565V200.83Z" fill="white"></path>
                  <path d="M121.72 200.83H102.824V208.384H121.72V200.83Z" fill="white"></path>
                </g>
              </svg>