<svg class="clip-path-group" width="207" height="209" viewBox="0 0 207 209" fill="none" xmlns="http://www.w3.org/2000/svg">
                <mask id="mask0_21_11" style="mask-type: luminance" maskUnits="userSpaceOnUse" x="0" y="0" width="207" height="209">
                  <path d="M206.983 0H0V208.126H206.983V0Z" fill="white"></path>
                </mask>
                <g mask="url(#mask0_21_11)">
                  <path d="M179.747 194.274C179.046 194.979 178.254 195.525 177.349 195.889C176.445 196.276 175.495 196.457 174.522 196.48C173.549 196.503 172.599 196.298 171.672 195.934C170.744 195.57 169.952 195.047 169.228 194.342L165.994 190.907L176.445 180.399L179.77 183.56C180.471 184.266 181.014 185.084 181.399 186.017C181.783 186.95 181.964 187.905 181.964 188.906C181.964 189.907 181.783 190.862 181.399 191.795C181.014 192.727 180.471 193.546 179.77 194.251L179.747 194.274ZM142.852 148.35L169.387 173.711L159.298 183.856L134.053 157.152L142.852 148.327V148.35ZM186.488 176.623L146.087 138.023C145.635 137.591 145.114 137.25 144.526 137.022C143.938 136.795 143.327 136.681 142.694 136.681C142.061 136.681 141.45 136.817 140.884 137.068C140.296 137.318 139.798 137.659 139.346 138.114L135.048 142.436L122.946 130.266C127.515 124.898 131.067 118.916 133.578 112.297C136.089 105.678 137.446 98.8542 137.604 91.7802C137.604 91.1433 137.514 90.5064 137.287 89.915C137.061 89.3236 136.722 88.7777 136.27 88.3001C135.817 87.8224 135.319 87.4585 134.731 87.2082C134.143 86.9353 133.532 86.7988 132.876 86.7988C132.243 86.7988 131.61 86.8898 131.021 87.1173C130.411 87.3447 129.89 87.6859 129.415 88.1408C128.94 88.5957 128.578 89.0962 128.33 89.6876C128.058 90.279 127.922 90.8931 127.922 91.5527C127.877 93.3042 127.741 95.0556 127.538 96.7843C127.312 98.513 127.018 100.242 126.61 101.948C126.226 103.654 125.728 105.337 125.185 106.997C124.62 108.658 123.986 110.273 123.262 111.865C122.539 113.457 121.724 115.004 120.842 116.528C119.96 118.029 119.01 119.508 117.969 120.918C116.929 122.328 115.843 123.693 114.666 124.989C113.49 126.286 112.269 127.537 110.979 128.697C109.69 129.88 108.332 130.972 106.93 132.018C105.527 133.064 104.08 134.02 102.564 134.907C101.071 135.794 99.5329 136.613 97.9494 137.341C96.3659 138.068 94.7598 138.728 93.1085 139.297C91.4572 139.865 89.7832 140.343 88.0866 140.752C86.39 141.162 84.6708 141.458 82.9516 141.685C81.2324 141.912 79.4906 142.049 77.7488 142.094C76.007 142.14 74.2651 142.094 72.5233 141.981C70.7815 141.844 69.0623 141.64 67.3431 141.321C65.6239 141.003 63.9273 140.616 62.2533 140.138C60.5794 139.661 58.928 139.092 57.2993 138.455C55.6706 137.818 54.0871 137.09 52.5489 136.271C51.0107 135.475 49.4951 134.588 48.0473 133.633C46.5996 132.678 45.1744 131.654 43.8172 130.539C42.4599 129.448 41.1705 128.265 39.9263 127.037C38.6822 125.808 37.5285 124.512 36.4201 123.147C35.3116 121.782 34.2711 120.395 33.321 118.916C32.3483 117.46 31.4661 115.959 30.6517 114.413C29.8373 112.866 29.1135 111.274 28.4574 109.659C27.8014 108.044 27.2359 106.383 26.7382 104.7C26.2406 103.017 25.856 101.311 25.5393 99.5821C25.2226 97.8534 24.9964 96.1247 24.8607 94.3733C24.725 92.6218 24.6571 90.8704 24.7023 89.1189C24.7476 87.3675 24.8607 85.616 25.0643 83.8873C25.2679 82.1586 25.5846 80.4299 25.9691 78.724C26.3537 77.018 26.8287 75.3348 27.3716 73.6743C27.9145 72.0139 28.5706 70.3762 29.2718 68.7839C29.9957 67.1917 30.7874 65.6222 31.6696 64.121C32.5519 62.597 33.5019 61.1413 34.5199 59.731C35.5378 58.3208 36.6237 56.956 37.8 55.6367C38.9536 54.3402 40.1752 53.0892 41.4646 51.9064C42.754 50.7236 44.0886 49.609 45.4911 48.5627C46.8936 47.5164 48.3414 46.5383 49.8344 45.6512C51.3274 44.7414 52.8656 43.9225 54.4491 43.1946C56.0325 42.444 57.6386 41.7844 59.29 41.2157C60.9413 40.6471 62.6153 40.1467 64.2892 39.7372C65.9858 39.3278 67.705 39.0094 69.4242 38.7819C71.1434 38.5545 72.8853 38.3952 74.6271 38.3497C76.3689 38.2815 78.1107 38.327 79.8525 38.4407C81.5944 38.5545 83.3136 38.7592 85.0328 39.0549C85.6662 39.1686 86.2996 39.1459 86.9103 39.0094C87.5211 38.8729 88.1092 38.5999 88.6295 38.236C89.1498 37.8721 89.5796 37.3944 89.9189 36.8485C90.2582 36.3026 90.4845 35.7112 90.5976 35.0743C90.7107 34.4374 90.688 33.8005 90.5523 33.1636C90.4166 32.5268 90.1451 31.9581 89.7832 31.4349C89.4213 30.9118 88.9462 30.4796 88.4033 30.1384C87.8604 29.7972 87.2723 29.5698 86.6389 29.456C85.3721 29.2286 84.1053 29.0694 82.8385 28.9329C81.5717 28.7964 80.2823 28.7054 78.9929 28.6372C77.7035 28.5917 76.4368 28.5689 75.1474 28.5917C73.858 28.6144 72.5912 28.6827 71.3018 28.7964C70.0124 28.9101 68.7456 29.0466 67.4788 29.2286C66.212 29.4105 64.9453 29.638 63.7011 29.911C62.4343 30.1839 61.1902 30.4796 59.9686 30.8208C58.7245 31.162 57.5029 31.5487 56.304 31.9581C55.0825 32.3903 53.8835 32.8452 52.7072 33.3456C51.531 33.846 50.3547 34.3692 49.201 34.9378C48.0473 35.5065 46.9163 36.1206 45.8078 36.7575C44.6994 37.3944 43.6136 38.0768 42.5278 38.7819C41.4646 39.487 40.4014 40.2377 39.3834 41.011C38.3655 41.7844 37.3702 42.6033 36.3974 43.4449C35.4247 44.2865 34.4747 45.1508 33.5472 46.0606C32.6197 46.9705 31.7375 47.8803 30.8779 48.8357C30.0183 49.791 29.1813 50.7691 28.3896 51.7927C27.5978 52.7935 26.8287 53.8398 26.0822 54.8861C25.3357 55.9324 24.6345 57.0242 23.9785 58.1161C23.3225 59.2079 22.6665 60.3452 22.0783 61.4825C21.4902 62.6198 20.9246 63.7798 20.3817 64.9626C19.8614 66.1454 19.3638 67.3282 18.9114 68.5337C18.4589 69.7393 18.0517 70.9676 17.6672 72.1959C17.2826 73.4241 16.9659 74.6752 16.6492 75.9262C16.3552 77.1772 16.0837 78.451 15.8801 79.7248C15.6539 80.9986 15.4729 82.2724 15.3372 83.5461C15.2015 84.8199 15.111 86.1164 15.0431 87.413C14.9753 88.7095 14.9753 89.9833 14.9979 91.2798C15.0205 92.5763 15.0884 93.8501 15.1789 95.1466C15.2694 96.4431 15.4277 97.7169 15.6087 98.9907C15.7896 100.264 16.0159 101.538 16.2647 102.812C16.5361 104.086 16.8302 105.337 17.1695 106.565C17.5088 107.816 17.8934 109.044 18.3006 110.273C18.7078 111.501 19.1828 112.707 19.6578 113.889C20.1555 115.072 20.6758 116.255 21.2413 117.415C21.8069 118.575 22.4176 119.712 23.051 120.827C23.6844 121.941 24.363 123.056 25.0643 124.125C25.7655 125.194 26.512 126.263 27.2812 127.287C28.0503 128.31 28.8646 129.334 29.679 130.312C30.516 131.29 31.3756 132.245 32.2804 133.178C33.1853 134.111 34.0901 134.998 35.0402 135.862C35.9903 136.726 36.963 137.568 37.9583 138.364C38.9536 139.16 39.9942 139.934 41.0348 140.684C42.0753 141.435 43.1611 142.14 44.247 142.8C45.3328 143.459 46.4638 144.119 47.5949 144.71C48.7259 145.324 49.8796 145.87 51.0559 146.416C52.2322 146.939 53.4085 147.44 54.6074 147.895C55.8063 148.35 57.0279 148.759 58.2494 149.146C59.471 149.532 60.7151 149.874 61.9593 150.169C63.2034 150.465 64.4702 150.738 65.737 150.943C67.0038 151.17 68.2706 151.352 69.5373 151.489C70.8041 151.625 72.0935 151.739 73.3829 151.784C74.6723 151.83 75.9391 151.875 77.2285 151.853C78.5179 151.83 79.7847 151.762 81.0741 151.671C82.3635 151.58 83.6303 151.42 84.897 151.238C86.1638 151.056 87.4306 150.829 88.6974 150.579C89.9642 150.328 91.2083 150.01 92.4299 149.669C93.674 149.328 94.8956 148.941 96.1171 148.532C97.3387 148.122 98.5376 147.667 99.7139 147.167C100.89 146.666 102.066 146.143 103.22 145.575C104.374 145.006 105.505 144.415 106.613 143.755C107.722 143.095 108.83 142.436 109.893 141.731C110.957 141.025 112.02 140.275 113.038 139.501C114.056 138.728 115.074 137.932 116.046 137.09L128.149 149.259L123.851 153.581C123.398 154.036 123.059 154.537 122.81 155.128C122.561 155.719 122.448 156.333 122.425 156.948C122.425 157.584 122.539 158.199 122.765 158.79C122.991 159.381 123.33 159.905 123.76 160.36L162.239 201.075C163.03 201.894 163.913 202.599 164.84 203.236C165.79 203.873 166.785 204.419 167.826 204.851C168.867 205.283 169.952 205.624 171.061 205.852C172.169 206.079 173.3 206.193 174.431 206.193C175.562 206.193 176.693 206.079 177.802 205.852C178.91 205.624 179.996 205.306 181.037 204.851C182.077 204.396 183.073 203.873 184.023 203.236C184.973 202.599 185.832 201.871 186.624 201.075C187.416 200.256 188.14 199.392 188.75 198.436C189.384 197.481 189.904 196.48 190.334 195.434C190.764 194.388 191.08 193.296 191.307 192.181C191.51 191.067 191.623 189.929 191.623 188.792C191.623 187.655 191.488 186.517 191.261 185.403C191.035 184.288 190.696 183.197 190.243 182.15C189.791 181.104 189.271 180.103 188.615 179.17C187.981 178.238 187.257 177.351 186.443 176.555L186.488 176.623Z" fill="white"></path>
                  <path d="M158.37 13.9886C162.736 18.3786 161.763 26.4534 156.244 32.0035L154.298 33.9596L138.509 18.0829L140.454 16.1267C145.974 10.5767 154.004 9.62138 158.37 13.9886ZM90.145 89.46L143.01 36.3252L147.489 40.8289L94.624 93.9637L90.145 89.46ZM131.677 24.9522L136.156 29.4559L83.3134 82.5907L78.8344 78.087L131.677 24.9522ZM74.6043 87.6176L85.1457 98.2172L71.098 101.743L74.6043 87.6176ZM67.2977 76.9042L59.7649 107.247C59.6744 107.657 59.6065 108.066 59.6291 108.498C59.6291 108.908 59.697 109.34 59.8101 109.727C59.9232 110.136 60.0816 110.523 60.2851 110.887C60.4887 111.251 60.7376 111.569 61.0543 111.888C61.3483 112.183 61.6877 112.433 62.0496 112.661C62.4115 112.866 62.7961 113.025 63.2033 113.139C63.6105 113.252 64.0176 113.321 64.4248 113.321C64.832 113.321 65.2618 113.275 65.669 113.184L95.8455 105.61C96.7051 105.382 97.4742 104.973 98.085 104.336L163.143 38.9183C165.292 36.8029 167.034 34.3691 168.323 31.6395C169.635 28.91 170.427 26.0213 170.721 23.0188C171.038 20.1073 170.721 17.2413 169.749 14.4663C168.798 11.6913 167.283 9.25744 165.247 7.14206C157.126 -1.02377 142.943 -0.0684386 133.645 9.28019L68.5871 74.6978C67.9537 75.3347 67.5239 76.0853 67.3203 76.9497L67.2977 76.9042Z" fill="white"></path>
                </g>
              </svg>