<svg class="clip-path-group9" width="238" height="238" viewBox="0 0 238 238" fill="none" xmlns="http://www.w3.org/2000/svg">
                <mask id="mask0_21_18" style="mask-type: luminance" maskUnits="userSpaceOnUse" x="0" y="0" width="238" height="238">
                  <path d="M237.055 0.637939H0.115723V237.158H237.055V0.637939Z" fill="white"></path>
                </mask>
                <g mask="url(#mask0_21_18)">
                  <path d="M203.385 0.637939H193.214C188.753 0.637939 188.753 7.55374 193.214 7.55374H203.385C213.887 7.55374 222.423 16.0463 222.423 26.503V106.56C222.423 117.017 213.887 125.51 203.385 125.51H191.856C191.108 125.51 190.36 125.759 189.75 126.229L168.578 142.384V128.968C168.578 127.059 167.026 125.51 165.114 125.51H122.936C119.472 125.51 116.174 124.597 113.237 122.882V84.0425C113.237 76.7671 109.523 70.3492 103.898 66.5317V26.503C103.898 16.0463 112.433 7.55374 122.936 7.55374H171.488C175.95 7.55374 175.95 0.637939 171.488 0.637939H122.936C108.609 0.637939 96.9697 12.2288 96.9697 26.503V63.4887C95.3902 63.1014 93.7274 62.9078 92.037 62.9078H28.6038C16.9092 62.9078 7.37622 72.3963 7.37622 84.0425V91.5116C7.37622 95.9653 14.3043 95.9653 14.3043 91.5116V84.0425C14.3043 76.2138 20.7058 69.8236 28.6038 69.8236H92.037C99.9072 69.8236 106.336 76.1861 106.336 84.0425V124.237C106.281 124.541 106.309 124.846 106.336 125.15V147.142C106.336 147.585 106.336 148 106.281 148.442H99.1313C91.261 148.442 84.6932 154.113 83.3354 161.582C83.0305 161.693 82.7257 161.859 82.4486 162.08L66.9574 174.031V164.819C66.9574 162.91 65.4056 161.361 63.4934 161.361H28.6592C20.7889 161.361 14.3597 154.999 14.3597 147.142V112.231C14.3597 107.778 7.43165 107.778 7.43165 112.231V147.142C7.43165 158.788 16.9369 168.277 28.6592 168.277H60.0294V181.057C60.0294 183.824 63.4103 185.483 65.5995 183.796L83.0859 170.324V209.246C83.0859 218.071 90.2911 225.235 99.159 225.235H120.414V233.313C120.414 236.079 123.795 237.739 125.984 236.052L140.007 225.235H144.164C153.032 225.235 160.237 218.071 160.237 209.246V203.105C160.237 198.651 153.309 198.651 153.309 203.105V209.246C153.309 214.253 149.207 218.32 144.164 218.32H138.843C138.067 218.32 137.319 218.569 136.737 219.039L127.37 226.259V221.778C127.37 219.869 125.818 218.32 123.906 218.32H99.1867C94.1431 218.32 90.0417 214.253 90.0417 209.246V164.459C90.0417 159.452 94.1431 155.386 99.1867 155.386H144.191C149.235 155.386 153.336 159.452 153.336 164.459V181.445C153.336 185.898 160.264 185.898 160.264 181.445V164.459C160.264 155.635 153.059 148.47 144.191 148.47H113.265C113.265 148.027 113.292 130.572 113.292 130.572C116.341 131.789 119.611 132.425 122.992 132.425H161.705V149.383C161.705 152.149 165.059 153.809 167.276 152.122L193.076 132.425H203.44C217.767 132.425 229.406 120.835 229.406 106.56V26.503C229.406 12.2565 217.739 0.637939 203.44 0.637939H203.385Z" fill="white"></path>
                  <path d="M194.073 61.9673C195.182 61.9673 196.096 62.8802 196.096 63.9867C196.096 64.6506 196.096 66.4211 196.096 68.8554C196.041 82.2168 196.013 94.8865 196.096 96.9889C196.124 97.7358 195.764 98.2614 195.542 98.4827C195.154 98.8977 194.627 99.119 194.073 99.119H161.123C157.188 99.119 153.364 97.7635 150.316 95.3015L148.847 94.1119V67.1126L163.035 51.0956C167.442 46.1163 169.853 39.6984 169.853 33.0592C169.853 32.8656 170.13 32.8103 170.213 32.9763C173.289 38.3429 173.677 44.9268 171.266 50.6254L168.522 57.0986C168.079 58.1774 168.19 59.3946 168.827 60.3628C169.465 61.331 170.545 61.912 171.709 61.912L194.045 61.9673H194.073ZM141.946 97.5975H130.252V62.6589H141.946V97.5975ZM171.82 26.1988C167.414 25.0646 162.925 28.5501 162.925 33.0869C162.925 38.0386 161.123 42.8244 157.826 46.5312L148.265 57.3199C147.655 56.3793 146.574 55.7431 145.355 55.7431H126.705C124.793 55.7431 123.241 57.2922 123.241 59.201V101.055C123.241 102.964 124.793 104.513 126.705 104.513H145.355C146.768 104.513 147.96 103.683 148.514 102.494C152.283 104.79 156.662 106.035 161.096 106.035H194.045C199.089 106.035 203.218 101.664 202.996 96.6569C202.886 94.4439 202.996 64.6506 202.996 63.9867C202.996 59.0627 198.978 55.0515 194.045 55.0515L176.919 54.9962L177.64 53.3087C180.882 45.646 180.356 36.7661 176.226 29.546C175.257 27.8586 173.705 26.669 171.82 26.1711C169.936 25.7008 173.705 26.6414 171.82 26.1711C167.414 25.0369 173.705 26.6414 171.82 26.1711V26.1988Z" fill="white"></path>
                  <path d="M56.8426 112.342H65.2117L63.826 120.779H55.457L56.8426 112.342ZM37.0561 120.779C35.1439 120.779 33.592 122.328 33.592 124.237C33.592 126.146 35.1439 127.695 37.0561 127.695H47.2819L45.3697 139.203C45.0649 141.084 46.3397 142.855 48.2241 143.187C48.4181 143.214 48.612 143.242 48.806 143.242C50.4688 143.242 51.9375 142.052 52.2146 140.337L54.3208 127.695H62.6898L60.7777 139.203C60.4729 141.084 61.7476 142.855 63.6321 143.187C63.826 143.214 64.02 143.242 64.214 143.242C65.8767 143.242 67.3455 142.052 67.6226 140.337L69.7287 127.695H83.6403C85.5524 127.695 87.1043 126.146 87.1043 124.237C87.1043 122.328 85.5524 120.779 83.6403 120.779H70.8927L72.2783 112.342H83.6403C85.5524 112.342 87.1043 110.793 87.1043 108.884C87.1043 106.975 85.5524 105.426 83.6403 105.426H73.4145L75.3266 93.9184C75.6314 92.0373 74.3567 90.2668 72.4722 89.9348C70.5878 89.6306 68.8142 90.9031 68.4817 92.7842L66.3756 105.426H58.0065L59.9186 93.9184C60.2235 92.0373 58.9487 90.2668 57.0643 89.9348C55.1798 89.6306 53.4063 90.9031 53.0737 92.7842L50.9676 105.426H37.0561C35.1439 105.426 33.592 106.975 33.592 108.884C33.592 110.793 35.1439 112.342 37.0561 112.342H49.8037L48.4181 120.779H37.0561Z" fill="white"></path>
                  <path d="M134.603 183.907C134.603 189.08 131.167 192.897 121.634 198.153C112.101 192.897 108.664 189.08 108.664 183.907C108.664 180.061 110.881 178.153 112.987 177.655C113.375 177.572 113.791 177.516 114.207 177.516C115.786 177.516 117.504 178.236 118.558 180.31C119.167 181.472 120.387 182.219 121.717 182.192C123.047 182.192 124.239 181.389 124.793 180.2C125.901 177.793 128.284 177.378 130.113 177.793C132.303 178.263 134.631 180.144 134.631 183.962L134.603 183.907ZM121.578 173.229C118.779 170.933 115.066 170.02 111.325 170.933C106.53 172.094 101.708 176.548 101.708 183.907C101.708 188.499 103.371 192.455 106.835 196.051C109.662 198.983 113.708 201.777 119.999 205.124C120.497 205.401 121.052 205.539 121.634 205.539C122.216 205.539 122.742 205.401 123.269 205.124C134.243 199.315 141.559 193.478 141.559 183.907C141.559 176.493 136.57 172.094 131.61 170.988C127.897 170.158 124.266 171.043 121.606 173.229H121.578Z" fill="white"></path>
                </g>
              </svg>