<svg class="clip-path-group8" width="222" height="238" viewBox="0 0 222 238" fill="none" xmlns="http://www.w3.org/2000/svg">
                <mask id="mask0_21_46" style="mask-type: luminance" maskUnits="userSpaceOnUse" x="0" y="0" width="222" height="238">
                  <path d="M221.806 0.0356445H0.00195312V237.797H221.806V0.0356445Z" fill="white"></path>
                </mask>
                <g mask="url(#mask0_21_46)">
                  <path d="M159.109 23.1503C159.529 21.8024 160.553 20.8788 161.857 20.6541L167.027 19.8553C170.24 19.3561 173.035 17.1844 174.479 14.0392L176.784 9.0219C177.925 6.32602 181.744 6.32602 182.885 9.0219L185.19 14.0392C186.634 17.1595 189.429 19.3311 192.642 19.8553L197.812 20.6541C199.116 20.8538 200.14 21.7774 200.56 23.1503C200.979 24.4982 200.653 25.8961 199.698 26.8946L195.949 30.8136C193.62 33.2598 192.549 36.7545 193.108 40.1992L193.993 45.7158C194.226 47.1136 193.713 48.4616 192.642 49.2853C191.571 50.1091 190.22 50.2339 189.056 49.5599L184.422 46.9639C181.534 45.3414 178.088 45.3414 175.2 46.9639L170.566 49.5599C169.402 50.2089 168.051 50.1091 166.98 49.2853C165.909 48.4616 165.397 47.1136 165.63 45.7158L166.515 40.1992C167.073 36.7545 166.002 33.2349 163.674 30.8136L159.924 26.8946C158.97 25.8961 158.644 24.4982 159.063 23.1503H159.109ZM159.179 35.781C159.971 36.6297 160.344 37.8279 160.157 39.0011L159.272 44.5176C158.62 48.5365 160.134 52.5054 163.208 54.9017C166.282 57.2981 170.264 57.5976 173.64 55.7005L178.274 53.1045C179.276 52.5553 180.44 52.5553 181.441 53.1045L186.075 55.7005C189.429 57.5976 193.411 57.2981 196.508 54.9017C199.581 52.5054 201.095 48.5365 200.443 44.5176L199.558 39.0011C199.372 37.8279 199.744 36.6047 200.536 35.781L204.285 31.862C210.154 25.8961 206.824 14.8879 198.79 13.7646L193.62 12.9659C192.502 12.7911 191.548 12.0423 191.059 10.9689L188.753 5.9516C187.077 2.30717 183.677 0.0356445 179.881 0.0356445C176.085 0.0356445 172.686 2.30717 171.009 5.9516L168.704 10.9689C168.215 12.0423 167.26 12.7911 166.142 12.9659L160.972 13.7646C157.223 14.3388 154.149 17.1095 152.985 20.9786C151.821 24.8477 152.776 29.0163 155.5 31.862L159.249 35.781H159.179Z" fill="white"></path>
                  <path d="M29.3337 92.3945H87.3638C90.7869 92.3945 93.5813 89.3991 93.5813 85.7297V32.6858C93.5813 29.0164 90.7869 26.021 87.3638 26.021H60.4212C56.1132 26.1708 56.1365 32.8356 60.4212 32.9853H87.0843V85.4301H29.6132V32.9853H44.8891C49.1971 32.8356 49.1738 26.1708 44.8891 26.021H29.3337C25.9106 26.021 23.1162 29.0164 23.1162 32.6858V85.7047C23.1162 89.3741 25.9106 92.3695 29.3337 92.3695V92.3945Z" fill="white"></path>
                  <path d="M63.8675 50.7082H77.0244C81.3324 50.5585 81.3092 43.8937 77.0244 43.7439H63.8675C59.5595 43.8937 59.5828 50.5585 63.8675 50.7082Z" fill="white"></path>
                  <path d="M63.8675 62.615H77.0244C81.3324 62.4652 81.3092 55.8004 77.0244 55.6506H63.8675C59.5595 55.8004 59.5828 62.4652 63.8675 62.615Z" fill="white"></path>
                  <path d="M43.5618 46.1404V49.7099H40.2318C35.9238 49.8597 35.9471 56.5245 40.2318 56.6743H43.5618V60.2438C43.7015 64.8618 49.919 64.8368 50.0587 60.2438V56.6743H53.3887C57.6967 56.5245 57.6734 49.8597 53.3887 49.7099H50.0587V46.1404C49.919 41.5224 43.7015 41.5474 43.5618 46.1404Z" fill="white"></path>
                  <path d="M36.9951 71.2019C36.9951 73.124 38.4389 74.6716 40.2319 74.6716H77.0247C81.3327 74.5219 81.3094 67.857 77.0247 67.7073H40.2319C38.4389 67.7073 36.9951 69.2549 36.9951 71.177V71.2019Z" fill="white"></path>
                  <path d="M218.747 230.683H17.4344C12.5676 230.483 12.5676 222.995 17.4344 222.795H218.747C223.614 222.995 223.614 230.483 218.747 230.683ZM59.3502 201.652H84.034V215.831H59.3502V201.652ZM105.76 174.269H130.444V215.831H105.76V174.269ZM218.747 215.831H183.305V198.832C183.165 194.214 176.947 194.239 176.808 198.832V215.831H152.124V144.565H176.808V182.432C176.947 187.05 183.165 187.025 183.305 182.432V144.19C183.305 140.571 180.557 137.6 177.157 137.6H151.775C148.398 137.6 145.627 140.546 145.627 144.19V215.856H136.894V173.895C136.894 170.275 134.147 167.305 130.747 167.305H105.364C101.988 167.305 99.2168 170.25 99.2168 173.895V215.856H90.4843V201.278C90.4843 197.659 87.7365 194.688 84.3367 194.688H58.9544C55.5778 194.688 52.8067 197.634 52.8067 201.278V215.856H17.4344C3.95154 216.405 3.95154 237.123 17.4344 237.672H218.747C232.23 237.123 232.23 216.405 218.747 215.856V215.831Z" fill="white"></path>
                  <path d="M38.6719 154.649C36.9021 154.3 35.2254 155.548 34.8994 157.445C34.5734 159.342 35.7377 161.14 37.5075 161.489C97.6799 170.95 159.11 144.415 176.551 74.0976L183.305 90.223C184.05 91.9953 186.006 92.7441 187.589 91.9703C189.219 91.1715 189.965 89.1247 189.219 87.3773L178.997 62.9647C178.601 62.0161 177.832 61.3172 176.901 61.0426C175.969 60.768 174.968 60.9427 174.176 61.5169L153.614 76.6937C152.147 77.792 151.775 79.9387 152.776 81.5363C153.801 83.1089 155.803 83.5082 157.293 82.4349L170.055 73.0243C158.83 114.611 133.937 141.02 95.98 151.554C66.1267 159.842 38.928 154.699 38.6486 154.649H38.6719Z" fill="white"></path>
                </g>
              </svg>