<svg class="clip-path-group6" width="212" height="212" viewBox="0 0 212 212" fill="none" xmlns="http://www.w3.org/2000/svg">
                <mask id="mask0_13_96" style="mask-type: luminance" maskUnits="userSpaceOnUse" x="0" y="0" width="212" height="212">
                  <path d="M211.594 0.62793H0.959229V211.262H211.594V0.62793Z" fill="white"></path>
                </mask>
                <g mask="url(#mask0_13_96)">
                  <path d="M98.5112 152.885C96.8069 152.885 95.4387 154.253 95.4387 155.957C95.4387 157.661 96.8069 159.03 98.5112 159.03H113.274C114.978 159.03 116.346 157.661 116.346 155.957C116.346 154.253 114.978 152.885 113.274 152.885H98.5112Z" fill="white"></path>
                  <path d="M66.2019 99.6199C67.5461 99.6199 68.6503 100.724 68.6503 102.068C68.6503 103.412 67.5461 104.517 66.2019 104.517C64.8577 104.517 63.7535 103.412 63.7535 102.068C63.7535 100.724 64.8577 99.6199 66.2019 99.6199ZM37.8533 105.165H58.1606C59.4088 108.405 62.5293 110.71 66.2019 110.71C69.8745 110.71 72.995 108.405 74.2432 105.165H78.2998C80.0041 105.165 81.3723 103.797 81.3723 102.092C81.3723 100.388 80.0041 99.0198 78.2998 99.0198H74.2432C72.995 95.7792 69.8745 93.4749 66.2019 93.4749C62.5293 93.4749 59.4088 95.7792 58.1606 99.0198H37.8533C36.149 99.0198 34.7808 100.388 34.7808 102.092C34.7808 103.797 36.149 105.165 37.8533 105.165Z" fill="white"></path>
                  <path d="M49.8072 82.001C51.1514 82.001 52.2556 83.1052 52.2556 84.4494C52.2556 85.7936 51.1514 86.8978 49.8072 86.8978C48.463 86.8978 47.3588 85.7936 47.3588 84.4494C47.3588 83.1052 48.463 82.001 49.8072 82.001ZM37.8533 87.5219H41.7899C43.0381 90.7625 46.1586 93.0668 49.8312 93.0668C53.5038 93.0668 56.6243 90.7625 57.8485 87.5219H78.2998C80.0041 87.5219 81.3723 86.1537 81.3723 84.4494C81.3723 82.7452 80.0041 81.3769 78.2998 81.3769H57.8485C56.6003 78.1364 53.4798 75.832 49.8312 75.832C46.1826 75.832 43.0381 78.1364 41.7899 81.3769H37.8533C36.149 81.3769 34.7808 82.7452 34.7808 84.4494C34.7808 86.1537 36.149 87.5219 37.8533 87.5219Z" fill="white"></path>
                  <path d="M81.9723 56.1729C81.9723 56.581 81.9003 56.965 81.7323 57.3491C81.5642 57.7332 81.3482 58.0692 81.0602 58.3573C80.7721 58.6453 80.4361 58.8614 80.052 59.0294C79.6679 59.1734 79.2839 59.2694 78.8758 59.2694C78.4677 59.2694 78.0837 59.1974 77.6996 59.0294C77.3155 58.8614 76.9795 58.6453 76.6914 58.3573C76.4034 58.0692 76.1874 57.7332 76.0193 57.3491C75.8513 56.965 75.7793 56.581 75.7793 56.1729C75.7793 55.7649 75.8513 55.3808 76.0193 54.9967C76.1634 54.6127 76.4034 54.2766 76.6914 53.9886C76.9795 53.7005 77.3155 53.4845 77.6996 53.3165C78.0837 53.1724 78.4677 53.0764 78.8758 53.0764C79.2839 53.0764 79.6679 53.1484 80.052 53.3165C80.4361 53.4845 80.7721 53.7005 81.0602 53.9886C81.3482 54.2766 81.5642 54.6127 81.7323 54.9967C81.8763 55.3808 81.9723 55.7649 81.9723 56.1729Z" fill="white"></path>
                  <path d="M73.4992 56.1729C73.4992 56.581 73.4272 56.965 73.2591 57.3491C73.1151 57.7332 72.8751 58.0692 72.587 58.3573C72.299 58.6453 71.9629 58.8614 71.5788 59.0294C71.1948 59.1734 70.8107 59.2694 70.4027 59.2694C69.9946 59.2694 69.6105 59.1974 69.2265 59.0294C68.8424 58.8614 68.5064 58.6453 68.2183 58.3573C67.9303 58.0692 67.7142 57.7332 67.5462 57.3491C67.4022 56.965 67.3062 56.581 67.3062 56.1729C67.3062 55.7649 67.3782 55.3808 67.5462 54.9967C67.7142 54.6127 67.9303 54.2766 68.2183 53.9886C68.5064 53.7005 68.8424 53.4845 69.2265 53.3165C69.6105 53.1724 69.9946 53.0764 70.4027 53.0764C70.8107 53.0764 71.1948 53.1484 71.5788 53.3165C71.9629 53.4845 72.299 53.7005 72.587 53.9886C72.8751 54.2766 73.0911 54.6127 73.2591 54.9967C73.4031 55.3808 73.4992 55.7649 73.4992 56.1729Z" fill="white"></path>
                  <path d="M65.0258 56.1729C65.0258 56.581 64.9538 56.965 64.7857 57.3491C64.6177 57.7332 64.4017 58.0692 64.1136 58.3573C63.8256 58.6453 63.4895 58.8614 63.1055 59.0294C62.7214 59.1734 62.3373 59.2694 61.9293 59.2694C61.5212 59.2694 61.1371 59.1974 60.7531 59.0294C60.369 58.8614 60.033 58.6453 59.7449 58.3573C59.4569 58.0692 59.2408 57.7332 59.0728 57.3491C58.9048 56.965 58.8328 56.581 58.8328 56.1729C58.8328 55.7649 58.9048 55.3808 59.0728 54.9967C59.2168 54.6127 59.4569 54.2766 59.7449 53.9886C60.033 53.7005 60.369 53.4845 60.7531 53.3165C61.1371 53.1724 61.5212 53.0764 61.9293 53.0764C62.3373 53.0764 62.7214 53.1484 63.1055 53.3165C63.4895 53.4845 63.8256 53.7005 64.1136 53.9886C64.4017 54.2766 64.6177 54.6127 64.7857 54.9967C64.9298 55.3808 65.0258 55.7649 65.0258 56.1729Z" fill="white"></path>
                  <path d="M91.598 102.284V97.1236L103.216 77.0083L116.058 99.26L113.778 103.197L110.849 98.1318C109.625 95.9954 107.417 94.7232 104.944 94.7232C102.472 94.7232 100.287 95.9954 99.0392 98.1318L94.0944 106.677L91.574 102.308L91.598 102.284ZM75.9714 124.2H86.4851C89.3176 124.2 91.598 121.896 91.598 119.087V112.582C92.3661 112.942 93.2302 113.158 94.1184 113.158C96.2067 113.158 98.103 112.078 99.1352 110.254L104.368 101.204C104.536 100.94 104.776 100.868 104.944 100.868C105.112 100.868 105.352 100.916 105.52 101.204L108.737 106.797C109.793 108.621 111.665 109.702 113.754 109.702C115.842 109.702 117.738 108.621 118.77 106.797L119.563 105.405L134.997 132.145H71.3387L75.8994 124.224L75.9714 124.2ZM30.6761 62.726V51.8523C30.6761 51.2762 31.1321 50.8201 31.7082 50.8201H84.4448C85.0209 50.8201 85.477 51.2762 85.477 51.8523V62.726H30.6761ZM85.453 68.871V118.031H30.6761V68.871H85.453ZM204.656 142.947H7.10423V30.5368C7.10423 28.8325 8.47245 27.4643 10.1767 27.4643H162.169L157.489 32.145H52.9997C51.2954 32.145 49.9272 33.5133 49.9272 35.2175C49.9272 36.9218 51.2954 38.29 52.9997 38.29H151.32L129.644 59.9656C129.02 60.5897 128.564 61.3098 128.228 62.1019L121.363 78.9047C120.739 80.4409 121.099 82.2172 122.275 83.3934C123.067 84.1855 124.123 84.5936 125.203 84.5936C125.732 84.5936 126.26 84.4976 126.764 84.2815L143.566 77.4164C144.359 77.1044 145.055 76.6243 145.655 76.0482L155.016 66.6867C157.033 71.7755 162.001 75.3761 167.786 75.3761C175.348 75.3761 181.517 69.2071 181.517 61.6458C181.517 55.8609 177.916 50.8921 172.827 48.8758L183.461 38.242H193.831V132.049H192.198L181.061 112.75C180.22 111.286 178.324 110.782 176.86 111.622C175.396 112.462 174.892 114.358 175.732 115.823L185.093 132.049H142.15L137.541 124.08L159.001 86.8979L168.53 103.413C169.371 104.877 171.267 105.381 172.731 104.541C174.195 103.701 174.699 101.804 173.859 100.34L163.682 82.7213C162.698 81.017 160.945 80.0088 159.001 80.0088C157.057 80.0088 155.28 81.017 154.32 82.7213L133.989 117.935L107.897 72.7597C106.912 71.0554 105.16 70.0472 103.216 70.0472C101.272 70.0472 99.5193 71.0554 98.5351 72.7597L91.598 84.7616V51.8042C91.598 47.8436 88.3815 44.6271 84.4208 44.6271H31.7082C27.7476 44.6271 24.5311 47.8436 24.5311 51.8042V119.015C24.5311 121.848 26.8354 124.128 29.6439 124.128H68.8663L64.3055 132.049H17.954V38.29H38.6694C40.3736 38.29 41.7419 36.9218 41.7419 35.2175C41.7419 33.5133 40.3736 32.145 38.6694 32.145H16.9218C14.0894 32.145 11.809 34.4494 11.809 37.2579V133.129C11.809 135.962 14.1134 138.242 16.9218 138.242H194.863C197.695 138.242 199.976 135.938 199.976 133.129V37.2819C199.976 34.4494 197.671 32.169 194.863 32.169H189.606L194.287 27.4883H201.584C203.288 27.4883 204.656 28.8565 204.656 30.5608V142.971V142.947ZM137.974 73.0957L128.876 76.8163L132.597 67.7188L137.974 73.0957ZM167.762 54.1086C171.939 54.1086 175.348 57.5172 175.348 61.6939C175.348 65.8705 171.939 69.2791 167.762 69.2791C163.586 69.2791 160.177 65.8705 160.177 61.6939C160.177 61.6458 160.177 61.5978 160.177 61.5498L167.618 54.1086C167.618 54.1086 167.714 54.1086 167.762 54.1086ZM172.323 26L179.692 33.3692L143.326 69.7352L135.957 62.366L172.323 26ZM178.804 19.519L186.173 26.8882L184.037 29.0245L176.668 21.6553L178.804 19.519ZM189.582 8.74124C189.75 8.57321 190.038 8.57321 190.206 8.74124L196.927 15.4623C197.095 15.6304 197.095 15.9184 196.927 16.0864L190.518 22.4955L183.149 15.1263L189.558 8.71723L189.582 8.74124ZM91.1899 169.471H120.571V191.219H91.1899V169.471ZM141.55 197.364C142.126 197.364 142.582 197.82 142.582 198.396V201.469C142.582 202.045 142.126 202.501 141.55 202.501H70.2345C69.6584 202.501 69.2023 202.045 69.2023 201.469V198.396C69.2023 197.82 69.6584 197.364 70.2345 197.364H141.55ZM201.584 21.3193H200.432L201.296 20.4551C203.864 17.8867 203.864 13.71 201.296 11.1176L194.575 4.39653C192.006 1.82811 187.83 1.82811 185.237 4.39653L168.314 21.3193H10.1767C5.0879 21.3193 0.959229 25.448 0.959229 30.5368V158.19C0.959229 164.407 6.02405 169.471 12.2411 169.471H85.0449V191.219H70.2345C66.2739 191.219 63.0573 194.435 63.0573 198.396V201.469C63.0573 205.429 66.2739 208.646 70.2345 208.646H141.55C145.511 208.646 148.727 205.429 148.727 201.469V198.396C148.727 194.435 145.511 191.219 141.55 191.219H126.74V169.471H159.577C161.281 169.471 162.65 168.103 162.65 166.399C162.65 164.695 161.281 163.326 159.577 163.326H12.2411C9.4086 163.326 7.12823 161.022 7.12823 158.214V149.116H204.68V158.214C204.68 161.046 202.376 163.326 199.568 163.326H173.955C172.251 163.326 170.883 164.695 170.883 166.399C170.883 168.103 172.251 169.471 173.955 169.471H199.568C205.785 169.471 210.849 164.407 210.849 158.19V30.5368C210.849 25.448 206.721 21.3193 201.632 21.3193H201.584Z" fill="white"></path>
                </g>
              </svg>